<?xml version="1.0" encoding="UTF-8" standalone="no"?>
<!-- Created with Inkscape (http://www.inkscape.org/) -->

<svg
   xmlns:dc="http://purl.org/dc/elements/1.1/"
   xmlns:cc="http://creativecommons.org/ns#"
   xmlns:rdf="http://www.w3.org/1999/02/22-rdf-syntax-ns#"
   xmlns:svg="http://www.w3.org/2000/svg"
   xmlns="http://www.w3.org/2000/svg"
   xmlns:xlink="http://www.w3.org/1999/xlink"
   xmlns:sodipodi="http://sodipodi.sourceforge.net/DTD/sodipodi-0.dtd"
   xmlns:inkscape="http://www.inkscape.org/namespaces/inkscape"
   height="247.99001"
   width="247.99001"
   version="1.1"
   id="svg11850"
   inkscape:version="0.48.3.1 r9886"
   sodipodi:docname="Openstreetmap-icon-hk.svg">
  <sodipodi:namedview
     pagecolor="#ffffff"
     bordercolor="#666666"
     borderopacity="1"
     objecttolerance="10"
     gridtolerance="10"
     guidetolerance="10"
     inkscape:pageopacity="0"
     inkscape:pageshadow="2"
     inkscape:window-width="738"
     inkscape:window-height="480"
     id="namedview12055"
     showgrid="false"
     inkscape:zoom="0.97892815"
     inkscape:cx="123.995"
     inkscape:cy="120.54"
     inkscape:window-x="0"
     inkscape:window-y="24"
     inkscape:window-maximized="0"
     inkscape:current-layer="svg11850" />
  <defs
     id="defs11852">
    <filter
       id="filter7286"
       color-interpolation-filters="sRGB">
      <feGaussianBlur
         stdDeviation="4.2868936"
         id="feGaussianBlur11855" />
    </filter>
    <clipPath
       id="clipPath8750"
       clipPathUnits="userSpaceOnUse">
      <path
         d="m 9,22.578 c 0,0 7.5,12.393 11.75,26.8 C 25,63.784 27,74.373 27,74.373 c 0,0 -5.5,13.195 -8.25,25.417 C 16,112.01 13,123.25 13,123.25 c 0,0 5.75,15.535 9.25,29.252 3.5,13.717 3.75,23.947 3.75,23.947 0,0 -4,10.574 -7.5,24.857 -3.5,14.283 -5,31.154 -5,31.154 0,0 4.0823,8.9808 23.332,10.674 19.25,1.6931 29.533,3.9111 29.533,3.9111 0,0 20.635,-16.03 31.885,-20.439 11.25,-4.4099 16.25,-7.8143 16.25,-7.8143 0,0 5.5,0.0552 22.5,4.4302 17,4.3751 29.25,6.1343 29.25,6.1343 0,0 13,-3.8014 26,-7.8528 13,-4.0514 26.5,-10.143 26.5,-10.143 0,0 -0.75,-4.9393 4.25,-24.844 5,-19.904 8.75,-28.708 8.75,-28.708 0,0 -0.5145,-4.4553 -3.75,-19.447 -1.75,-8.1085 -2.25,-4.068 -2.25,-4.068 0,0 16.264,-26.155 16.5,-40.334 0.25,-15.017 -7.25,-36.41 -7.25,-36.41 0,0 -4.75,-14.866 -7.5,-29.143 -2.75,-14.278 -8.25,-25.083 -8.25,-25.083 0,0 -24.25,10.961 -31.75,13.068 -7.5,2.1066 -21,6.9484 -21,6.9484 0,0 -9.75,-3.4614 -22,-6.7207 -12.25,-3.2592 -29.75,-3.0939 -29.75,-3.0939 0,0 -3.25,3.7629 -22,9.7793 -18.75,6.0165 -27.5,7.9741 -27.5,7.9741 0,0 -18.5,-7.5038 -31.5,-8.9524 -13,-1.4486 -24,-0.05894 -24.75,0.25172 z"
         id="path11858"
         inkscape:connector-curvature="0"
         style="opacity:0.03913;fill:url(#linearGradient8754)" />
    </clipPath>
    <linearGradient
       id="linearGradient8754"
       x1="210.17"
       gradientUnits="userSpaceOnUse"
       y1="72.064003"
       gradientTransform="matrix(1,-0.080878,0,1,0,203.06)"
       x2="9"
       y2="-213.25">
      <stop
         offset="0"
         id="stop11861" />
      <stop
         stop-opacity="0"
         offset="1"
         id="stop11863" />
    </linearGradient>
    <linearGradient
       id="linearGradient5762-1">
      <stop
         stop-color="#2d3335"
         offset="0"
         id="stop11866" />
      <stop
         stop-color="#4c464a"
         offset="0.5"
         id="stop11868" />
      <stop
         stop-color="#384042"
         offset="1"
         id="stop11870" />
    </linearGradient>
    <filter
       id="filter8725-7"
       color-interpolation-filters="sRGB">
      <feGaussianBlur
         stdDeviation="4.4575"
         id="feGaussianBlur11873" />
    </filter>
    <linearGradient
       id="linearGradient7210"
       y2="4.302"
       gradientUnits="userSpaceOnUse"
       x2="122"
       y1="245.45"
       x1="122">
      <stop
         offset="0"
         id="stop11876" />
      <stop
         stop-opacity="0"
         offset="1"
         id="stop11878" />
    </linearGradient>
    <radialGradient
       id="radialGradient7212"
       gradientUnits="userSpaceOnUse"
       cy="86"
       cx="128"
       gradientTransform="matrix(1.0213,0,0,-1.0213,-212.72,173.83)"
       r="47">
      <stop
         stop-color="#d0e9f2"
         stop-opacity="0"
         offset="0"
         id="stop11881" />
      <stop
         stop-color="#d0e9f2"
         stop-opacity="0"
         offset="0.83933"
         id="stop11883" />
      <stop
         stop-color="#d0e9f2"
         stop-opacity=".28185"
         offset="0.94309"
         id="stop11885" />
      <stop
         stop-color="#d0e9f2"
         offset="1"
         id="stop11887" />
    </radialGradient>
    <linearGradient
       id="linearGradient7214"
       y2="143.36"
       xlink:href="#linearGradient5762-1"
       gradientUnits="userSpaceOnUse"
       x2="130.88"
       gradientTransform="translate(-210,0)"
       y1="134.36"
       x1="128" />
    <linearGradient
       id="linearGradient7216"
       y2="150.38"
       xlink:href="#linearGradient5762-1"
       gradientUnits="userSpaceOnUse"
       x2="133"
       gradientTransform="matrix(-1,0,0,1,46,0)"
       y1="150.38"
       x1="123" />
    <linearGradient
       id="linearGradient7218"
       y2="186.5"
       gradientUnits="userSpaceOnUse"
       x2="136"
       gradientTransform="translate(-210,0)"
       y1="186.5"
       x1="120">
      <stop
         stop-color="#f9e295"
         offset="0"
         id="stop11892" />
      <stop
         stop-color="#f7dd84"
         offset="0.125"
         id="stop11894" />
      <stop
         stop-color="#fff"
         offset="0.20581"
         id="stop11896" />
      <stop
         stop-color="#f4ce51"
         offset="0.30113"
         id="stop11898" />
      <stop
         stop-color="#f9e7aa"
         offset="0.3412"
         id="stop11900" />
      <stop
         stop-color="#efbb0e"
         offset="1"
         id="stop11902" />
    </linearGradient>
    <linearGradient
       id="linearGradient7220"
       y2="150.38"
       gradientUnits="userSpaceOnUse"
       x2="133"
       gradientTransform="matrix(-2,0,0,1.7699,174,-86.65)"
       y1="150.38"
       x1="123">
      <stop
         stop-color="#2d3335"
         offset="0"
         id="stop11905" />
      <stop
         stop-color="#4c464a"
         offset="0.5"
         id="stop11907" />
      <stop
         stop-color="#384042"
         offset="1"
         id="stop11909" />
    </linearGradient>
    <linearGradient
       id="linearGradient7222"
       y2="186.5"
       gradientUnits="userSpaceOnUse"
       x2="136"
       gradientTransform="translate(-210,67)"
       y1="186.5"
       x1="120">
      <stop
         stop-color="#f9e295"
         offset="0"
         id="stop11912" />
      <stop
         stop-color="#f7dd84"
         offset="0.125"
         id="stop11914" />
      <stop
         stop-color="#fff"
         offset="0.20581"
         id="stop11916" />
      <stop
         stop-color="#f4ce51"
         offset="0.30113"
         id="stop11918" />
      <stop
         stop-color="#f9e7aa"
         offset="0.3412"
         id="stop11920" />
      <stop
         stop-color="#efbb0e"
         offset="1"
         id="stop11922" />
    </linearGradient>
    <radialGradient
       id="radialGradient7224"
       gradientUnits="userSpaceOnUse"
       cy="72.587997"
       cx="159.61"
       gradientTransform="matrix(1.2124982,0,0,0.83914877,-78.581059,33.357034)"
       r="38.417">
      <stop
         stop-color="#fff"
         offset="0"
         id="stop11925" />
      <stop
         stop-color="#fff"
         stop-opacity=".93050"
         offset="0.5"
         id="stop11927" />
      <stop
         stop-color="#fff"
         stop-opacity="0"
         offset="1"
         id="stop11929" />
    </radialGradient>
  </defs>
  <metadata
     id="metadata11931">
    <rdf:RDF>
      <cc:Work
         rdf:about="">
        <dc:format>image/svg+xml</dc:format>
        <dc:type
           rdf:resource="http://purl.org/dc/dcmitype/StillImage" />
        <dc:title />
      </cc:Work>
    </rdf:RDF>
  </metadata>
  <g
     transform="translate(-348.20201,-392.93117)"
     id="g11933">
    <g
       transform="translate(532.093,497.23099)"
       id="g11935">
      <g
         transform="translate(0,-10)"
         id="g11937">
        <path
           d="m 9,17.25 c 0,0 7.5,11 11.75,25.75 C 25,57.75 27,68.5 27,68.5 c 0,0 -5.5,12.75 -8.25,24.75 -2.75,12 -5.75,25 -5.75,25 0,0 5.75,16 9.25,30 3.5,14 3.75,22.25 3.75,22.25 0,0 -4,10.25 -7.5,24.25 -3.5,14 -5,30.75 -5,30.75 0,0 9.25,-2 28.5,1.25 19.25,3.25 32.25,6 32.25,6 0,0 12.75,-2.75 24,-6.25 11.25,-3.5 16.25,-6.5 16.25,-6.5 0,0 5.5,0.5 22.5,6.25 17,5.75 29.25,8.5 29.25,8.5 0,0 13,-2.75 26,-5.75 13,-3 26.5,-8 26.5,-8 0,0 -0.75,-5 4.25,-24.5 5,-19.5 8.75,-28 8.75,-28 0,0 -0.5,-2.5 -3.75,-17.75 C 224.75,135.5 218,121 218,121 c 0,0 1.75,-12.5 6.75,-25.75 C 229.75,82 235,68.5 235,68.5 c 0,0 -4.75,-15.25 -7.5,-29.75 C 224.75,24.25 219.25,15 219.25,15 c 0,0 -24.25,9 -31.75,10.5 -7.5,1.5 -21,5.25 -21,5.25 0,0 -9.75,-4.25 -22,-8.5 -12.25,-4.25 -29.75,-5.5 -29.75,-5.5 0,0 -3.25,3.5 -22,8 -18.75,4.5 -27.5,5.75 -27.5,5.75 0,0 -18.5,-9 -31.5,-11.5 -13,-2.5 -24,-2 -24.75,-1.75 z"
           transform="matrix(1,0,0,0.84657,-181.60186,-54.094074)"
           id="path11939"
           inkscape:connector-curvature="0"
           style="opacity:0.5;fill:url(#linearGradient7210);filter:url(#filter8725-7)" />
      </g>
    </g>
    <g
       transform="translate(342.26249,581.84116)"
       id="g11941"
       style="opacity:0.50435001">
      <path
         d="m 219.25,10 c 0,0 -24.25,9 -31.75,10.5 -7.5,1.5 -21,5.25 -21,5.25 0,0 -9.75,-4.25 -22,-8.5 -12.25,-4.25 -29.75,-5.5 -29.75,-5.5 0,0 -3.25,3.5 -22,8 -18.75,4.5 -27.5,5.75 -27.5,5.75 0,0 -18.5,-9 -31.5,-11.5 -13,-2.5 -24,-2 -24.75,-1.75 0,0 7.5,13 11.75,27.75 C 25,54.75 27,65.5 27,65.5 l 51.469,5.125 48.971,-4 52.25,12.031 c 10.38,-4.418 52.11,-4.9 55.31,-13.156 0,0 -4.75,-15.25 -7.5,-29.75 C 224.75,21.25 219.25,10 219.25,10 z"
         transform="translate(0,-192)"
         id="path11943"
         inkscape:connector-curvature="0"
         style="fill:#b1e479" />
      <path
         d="m 27,65.5 c 0,0 -5.5,12.75 -8.25,24.75 -2.75,12 -5.75,23 -5.75,23 l 50.969,16.37 53.721,-15.74 52.25,17.53 c 16.36,-4.26 32.39,-9.12 48.06,-15.41 0,0 1.75,-10.5 6.75,-23.75 C 229.75,79 235,65.5 235,65.5 c -3.2,8.256 -44.93,8.738 -55.31,13.156 l -52.25,-12.031 -47.971,4 L 27,65.5 z"
         transform="translate(0,-192)"
         id="path11945"
         inkscape:connector-curvature="0"
         style="fill:#87d531" />
      <path
         d="m 231.75,165.5 c -17.9,7.67 -35.94,14.9 -54.31,21.41 l -52.25,-18.53 -50.221,9 L 26,167.5 c 0,0 -4,10.25 -7.5,24.25 -3.5,14 -5,30.75 -5,30.75 0,0 9.25,-2 28.5,1.25 19.25,3.25 32.25,6 32.25,6 0,0 12.75,-2.75 24,-6.25 11.25,-3.5 16.25,-6.5 16.25,-6.5 0,0 5.5,0.5 22.5,6.25 17,5.75 29.25,8.5 29.25,8.5 0,0 13,-2.75 26,-5.75 13,-3 26.5,-8 26.5,-8 0,0 -0.75,-5 4.25,-24.5 5,-19.5 8.75,-28 8.75,-28 z"
         transform="translate(0,-192)"
         id="path11947"
         inkscape:connector-curvature="0"
         style="fill:#ceeeab" />
      <path
         d="m 13,113.25 c 0,0 5.75,16 9.25,30 3.5,14 3.75,24.25 3.75,24.25 l 48.969,9.88 50.221,-9 52.25,18.53 c 18.37,-6.51 36.41,-13.74 54.31,-21.41 0,0 -0.5,-4.5 -3.75,-19.75 C 224.75,130.5 218,116 218,116 c -15.67,6.29 -31.7,11.15 -48.06,15.41 L 117.69,113.88 63.969,129.62 13,113.25 z"
         transform="translate(0,-192)"
         id="path11949"
         inkscape:connector-curvature="0"
         style="fill:#b9e787" />
    </g>
    <g
       transform="translate(342.26249,401.84116)"
       id="g11951"
       style="opacity:0.52174">
      <path
         d="M 13.719,0.03125 C 10.99,0.02425 9.2812,0.15625 9,0.25 9,0.25 16.5,13.25 20.75,28 25,42.75 27,53.5 27,53.5 c 0,0 -5.5,12.75 -8.25,24.75 -2.75,12 -5.75,23 -5.75,23 0,0 5.75,16 9.25,30 3.5,14 3.75,24.25 3.75,24.25 0,0 -4,10.25 -7.5,24.25 -3.5,14 -5,30.75 -5,30.75 0,0 9.25,-2 28.5,1.25 19.25,3.25 32.25,6 32.25,6 L 75.75,164.5 63.5,118 79.5,58.25 C 77.28,42.77 70.432,28.204 65.25,13.5 65.25,13.5 46.75,4.5 33.75,2 25.625,0.4375 18.267,0.0435 13.719,0.0312 z"
         id="path11953"
         inkscape:connector-curvature="0"
         style="fill:#83d32b" />
      <path
         d="m 114.75,-0.25 c 0,0 -3.25,3.5 -22,8 -18.75,4.5 -27.5,5.75 -27.5,5.75 5.182,14.704 12.03,29.27 14.25,44.75 l -16,59.75 12.25,46.5 -1.5,53.25 c 0,0 12.75,-2.75 24,-6.25 C 109.5,208 114.5,205 114.5,205 l 11.25,-48.5 -8.25,-54.25 11.75,-45 c -3.44,-9.727 -8.06,-56.93 -14.5,-57.5 z"
         id="path11955"
         inkscape:connector-curvature="0"
         style="fill:#b1e479" />
      <path
         d="m 219.25,-2 c 0,0 -24.25,9 -31.75,10.5 -7.5,1.5 -21,5.25 -21,5.25 4.92,-1.358 11.44,45.392 14.25,52.25 l -11.25,53.25 9.5,55 -12.75,45.5 c 0,0 13,-2.75 26,-5.75 13,-3 26.5,-8 26.5,-8 0,0 -0.75,-5 4.25,-24.5 5,-19.5 8.75,-28 8.75,-28 0,0 -0.5,-4.5 -3.75,-19.75 C 224.75,118.5 218,104 218,104 c 0,0 1.75,-10.5 6.75,-23.75 C 229.75,67 235,53.5 235,53.5 c 0,0 -4.75,-15.25 -7.5,-29.75 C 224.75,9.25 219.25,-2 219.25,-2 z"
         id="path11957"
         inkscape:connector-curvature="0"
         style="fill:#a4df62" />
      <path
         d="m 114.75,-0.25 c 6.44,0.57024 11.06,47.773 14.5,57.5 l -11.75,45 8.25,53.25 -11.25,49.5 c 0,0 5.5,0.5 22.5,6.25 17,5.75 29.25,8.5 29.25,8.5 l 12.75,-45.5 -9.5,-55 L 180.75,66 c -2.81,-6.858 -9.33,-53.608 -14.25,-52.25 0,0 -9.75,-4.25 -22,-8.5 -12.25,-4.25 -29.75,-5.5 -29.75,-5.5 z"
         id="path11959"
         inkscape:connector-curvature="0"
         style="fill:#ceeeab" />
    </g>
    <g
       transform="matrix(0.17452941,0,0,0.17459573,358.6599,290.14022)"
       id="g11961"
       style="fill:#008000">
      <g
         transform="matrix(0.97330254,0,0,0.97330254,13.372633,5.428377)"
         id="g11963">
        <path
           d="m 899.18,1593.2 c -12.653,-24.498 -16.374,-59.643 -16.207,-85.158 28.682,-15.651 3.7602,-45.008 -17.524,-52.729 -9.7922,-30.988 -81.941,-64.497 -107.39,-31.414 -17.275,14.067 -39.457,3.9389 -53.123,10.916 -16.576,-33.429 -86.71,-18.628 -95.556,13.754 21.193,37.751 41.747,73.95 91.766,65.404 6.3876,15.304 20.175,57.173 27.842,16.077 14.071,-34.547 36.464,11.549 47.808,16.19 -5.2298,24.049 3.9238,27.746 2.8242,45.753 43.987,-41.709 14.662,22.603 30.488,36.948 28.457,-1.3458 5.948,-35.516 7.0661,-50.394 -31.039,-24.966 49.314,-27.441 11.526,-54.012 -12.777,-24.269 37.913,8.3532 24.313,23.181 3.4936,27.678 14.385,64.216 51.929,50.736 l -3.0953,-2.3022 -2.6647,-2.9498 z"
           id="path11965"
           inkscape:connector-curvature="0" />
        <path
           d="m 694.04,1520 c -51.562,-27.115 -1.9618,42.795 3.3217,8.1616 L 694.04,1520 z"
           id="path11967"
           inkscape:connector-curvature="0" />
        <path
           d="M 742.98,1429.9 z"
           id="path11969"
           inkscape:connector-curvature="0" />
      </g>
      <path
         d="m 154.2,1339.7 c 27.169,-9.6975 54.338,-19.395 81.507,-29.092 43.412,-0.8384 0.28648,45.119 4.3029,67.882 -16.051,-3.7025 -102.34,-5.9694 -76.398,-13.257 4.2752,-9.6007 1.4946,-22.123 -9.4118,-25.532 z"
         id="path11971"
         inkscape:connector-curvature="0" />
      <path
         d="m 176.57,1675.6 c 29.792,-5.4962 22.37,-41.064 2.0415,-12.58 -16.105,-0.9805 -13.414,6.4512 -2.0415,12.58 z"
         id="path11973"
         inkscape:connector-curvature="0" />
      <path
         d="M 349.2,1603.8 z"
         id="path11975"
         inkscape:connector-curvature="0" />
      <path
         d="m 414.49,1589.5 c 21.158,-16.051 50.814,-18.407 14.936,-33.065 18.053,-17.684 3.7099,-36.81 -9.6764,-8.2345 20.442,14.67 -3.2488,47.087 -8.1515,37.886 l 3.3792,-0.7084 -0.48708,4.1216 z"
         id="path11977"
         inkscape:connector-curvature="0" />
      <path
         d="m 459.64,1489.7 c 25.719,-28.372 -36.312,-52.13 -28.13,-26.929 16.593,1.0302 14.047,22.402 28.13,26.929 z"
         id="path11979"
         inkscape:connector-curvature="0" />
      <path
         d="m 646.35,1626.9 c -14.208,-35.108 2.2564,-25.212 21.543,-10.426 -27.713,-26.668 -7.294,-47.982 21.769,-52.04 -16.918,-23.977 -94.613,30.658 -51.196,-13.182 13.135,-19.952 -36.282,-13.266 -25.101,-44.28 -1.6364,-28.841 -38.148,3.4137 -23.736,20.872 -33.487,33.145 43.452,-10.623 24.075,35.591 7.7903,24.413 -31.542,72.095 15.494,58.391 8.8165,-9.9625 10.041,3.2622 17.152,5.0732 z"
         id="path11981"
         inkscape:connector-curvature="0" />
      <path
         d="M 862.55,1621.3 z"
         id="path11983"
         inkscape:connector-curvature="0" />
      <path
         d="m 883.73,1675 c 21.384,-16.764 52.876,-21.118 22.989,-50.714 -39.082,10.902 -29.306,25.756 -22.989,50.714 z"
         id="path11985"
         inkscape:connector-curvature="0" />
      <path
         d="m 871.27,1014.2 c -35.37,-20.081 -20.056,-45.471 -8.879,-74.109 -15.705,-36.731 41.086,37.428 56.857,-0.67648 9.164,-8.3807 39.643,-6.4894 23.605,8.0799 32.249,-6.0275 -14.252,38.466 -31.654,29.71 -37.29,17.795 21.373,14.881 -39.929,36.99498 z m 188.97,191.97 c -14.701,-15.864 -39.681,-72.869 -5.5828,-39.297 12.338,-12.142 18.891,30.793 31.495,-0.4338 23.5,-17.64 -4.9749,46.656 29.21,7.3801 0.1138,17.148 -29.425,29.522 5.0357,40.446 -9.2889,33.413 -45.129,0.3496 -60.158,-8.0953 z m 105.14,-113.99 c 21.09,-49.801 -31.43,-22.478 -56.509,-36.957 -6.1466,-11.224 7.3887,-55.033 -14.188,-35.044 -18.531,16.138 -12.473,49.757 -12.433,74.094 -31.295,10.074 1.0871,-36.51 -23.423,-32.954 -14.361,43.931 -23.838,-4.0027 -8.0155,-22.428 -24.275,-31.5 35.13,-40.31 0.6455,-66.041 12.408,31.798 -44.692,52.129 -21.147,10.873 -22.025,2.5892 -11.771,-28.207 -33.143,-1.6354 -24.049,8.2832 -10.109,49.519 -39.506,36.869 -3.5731,14.189 -37.086,14.541 -21.415,32.041 16.673,26.645 8.4145,39.648 -13.563,57.718 7.78,29.358 -28.358,-16.113 -8.175,-25.103 -11.287,-25.687 -53.155,-5.4782 -65.135,-19.686 -10.653,20.259 -45.941,34.511 -36.327,66.103 -28.744,-16.764 0.95351,-54.27 -40.712,-63.929 -22.375,-11.836 -46.226,-19.064 -59.471,-36.415 33.137,11.832 51.812,-24.34 80.85,-12.311 -6.0694,24.246 30.36,16.248 1.2381,-1.9001 -29.663,-43.982 55.73,-36.655 64.14,-1.6446 23.769,40.987 48.616,-46.541 86.766,-35.182 36.972,-18.78 65.61,-45.045 95.3,-74.807 -20.504,-7.0529 -66.545,43.585 -85.516,4.0502 -8.7444,13.522 -20.471,-22.941 -41.088,0.30499 -2.933,-30 18.49,-7.8832 26.585,-38.045 -21.309,13.132 -0.47478,-21.813 -27.322,-2.9409 -35.582,14.995 2.9553,-33.432 -17.044,-17.009 5.0686,-16.629 -17.14,-12.961 -10.865,-33.065 -11.028,13.349 -36.529,-12.716 -37.118,26.414 -32.256,33.095 -84.133,26.96 -41.421,-15.257 48.092,-14.58 -35.015,-41.573 -55.77,-27.327 -31.895,-11.451 -76.669,-24.169 -82.059,25.524 -46.242,-4.2266 -71.177,44.248 -114.46,15.529 -35.275,5.4114 5.189,50.37 -37.698,42.572 -34.208,-10.058 -26.775,50.61 -65.916,29.856 -48.395,7.5535 7.0502,93.23101 -32.401,49.886 -27.629,9.617 -70.893,26.757 -57.544,54.22201 -28.774,-36.73101 75.321,-60.78001 9.8738,-75.81901 -25.669,26.174 -36.189,68.90201 -73.856,83.45001 -36.892,6.0066 -32.109,73.736 -74.893,69.041 -19.571,-10.649 -73.664,41.276 -24.033,43.203 9.9977,22.531 9.6576,44.87 5.1406,65.248 16.602,11.075 36.434,37.705 39.369,14.586 23.142,25.879 35.801,-30.69 66.26,-15.134 -16.557,-19.359 23.382,-101.54 5.2145,-39.466 -23.8,36.328 55.725,25.996 45.475,55.533 20.157,15.317 58.875,-17.44 48.505,15.156 38.735,17.538 71.965,-30.004 106.81,-16.069 21.89,-6.8363 51.565,-9.5167 73.127,-9.3615 11.267,30.678 27.618,71.904 44.408,87.852 19.262,0.1011 -43.812,26.742 5.0541,25.033 26.513,10.259 25.83,-6.3448 17.707,-22.475 50.191,-1.3901 6.7271,84.624 50.107,55.37 -6.6831,42.811 65.961,1.7916 48.387,-25.462 12.872,-37.626 67.807,56.16 34.681,-1.343 39.236,-4.4808 46.292,79.422 77.553,53.021 25.839,-10.48 -1.2896,-54.364 24.498,-26.747 30.652,-28.679 -0.77637,25.553 23.04,30.803 -21.191,22.142 4.9837,77.561 27.736,38.566 18.673,10.26 49.545,25.46 32.788,5.4882 4.4298,-20.572 -1.1934,-30.759 -14.835,-10.729 0.99933,-11.049 -24.28,-40.852 2.0186,-33.44 50.619,15.782 26.074,-73.69 -4.9349,-33.887 5.2033,-36.028 -18.506,-31.278 -39.347,-40.862 -16.72,-23.131 1.8871,-79.936 -40.902,-65.012 8.796,-15.6 28.639,-63.95 35.588,-19.493 -17.215,12.165 14.469,3.4526 9.6382,22.358 13.599,-18.997 -15.222,-33.114 -5.0428,-56.696 2.3305,-15.694 16.712,-59.783 39.651,-25.652 20.227,-0.2869 28.617,17.812 45.468,-9.2867 32.011,-26.602 -11.61,27.305 22.094,29.536 22.206,2.2749 23.996,22.744 12.467,38.44 26.494,6.0968 11.225,49.944 38.856,17.438 2.3384,18.776 17.86,59.286 15.753,16.393 -1.6507,-21.216 15.607,-0.1551 13.884,-17.074 40.429,14.649 6.1742,-55.394 35.449,-43.718 5.6184,28.904 21.087,12.488 5.3242,-6.2282 27.521,-10.786 -22.02,-49.16 -32.421,-42.642 -6.0034,-10.893 30.436,-75.291 52.127,-39.378 22.948,20.567 17.842,-15.17 0.082,-16.916 z"
         id="path11987"
         inkscape:connector-curvature="0" />
      <path
         d="M 1045.2,1195.7 z"
         id="path11989"
         inkscape:connector-curvature="0" />
      <path
         d="m 964.21,1463.4 c -11.507,-34.274 -48.772,42.624 -8.0775,24.86 10.166,3.2469 12.842,-19.462 8.0775,-24.86 z"
         id="path11991"
         inkscape:connector-curvature="0" />
      <path
         d="m 1024.8,1279 c -40.126,-28.1 3.1584,57.094 6.1909,8.888 L 1024.8,1279 z"
         id="path11993"
         inkscape:connector-curvature="0" />
      <path
         d="m 964.16,1233.6 c 6.844,-23.761 -16.487,-53.686 -11.595,-13.227 -1.9849,-0.5917 15.34,27.325 11.595,13.227 z"
         id="path11995"
         inkscape:connector-curvature="0" />
      <path
         d="m 988.03,1259.9 c 32.988,24.582 50.089,-24.163 19.735,-36.87 6.9677,-9.3721 -5.2078,-44.946 -15.469,-21.706 14.093,-32.005 -30.934,15.95 -4.6958,27.125 -4.1472,3.6439 -13.946,25.792 0.43,31.451 z"
         id="path11997"
         inkscape:connector-curvature="0" />
      <path
         d="M 998.52,1195.5 z"
         id="path11999"
         inkscape:connector-curvature="0" />
      <path
         d="m 588.16,1229.1 c -28.838,-18.564 -83.362,9.2784 -39.197,38.931 11.504,14.97 -8.1029,47.416 29.927,32.087 48.884,6.1442 6.4837,-49.862 9.2693,-71.018 z"
         id="path12001"
         inkscape:connector-curvature="0" />
      <path
         d="m 1006.5,894.91 c 12.968,-22.933 -26.101,-39.875 -18.641,-2.5112 -18.39,18.757 13.882,5.2132 18.641,2.5112 z"
         id="path12003"
         inkscape:connector-curvature="0" />
      <path
         d="m 1089.6,981.04 c 16.392,45.711 15.765,-61.989 -6.0518,-17.561 l 3.3067,7.1556 2.7451,10.405 z"
         id="path12005"
         inkscape:connector-curvature="0" />
      <path
         d="m 485.09,1280.1 c -25.464,-51.053 -56.07,36.69 -85.474,18.959 -44.295,24.638 -75.89,71.252 -131.26,70.938 -32.944,1.8623 -34.709,66.396 -56.466,12.15 -44.149,-18.398 -62.999,25.846 -76.545,45.147 -37.812,-8.797 -39.126,46.136 -28.195,42.271 -19.568,-11.66 -34.73,20.34 -36.155,41.605 -50.177,-12.319 -2.552,57.18 -9.6466,73.197 7.0028,7.2139 22.012,-21.288 42.195,-13.898 21.194,-21.525 55.534,-62.055 74.194,-14.311 13.003,5.7018 59.593,11.528 48.882,-13.398 -35.21,8.8139 -13.786,-28.082 10.046,-19.669 28.226,-19.856 65.386,-19.835 94.942,-31.057 -4.6553,21.942 -1.812,48.376 1.8628,44.043 9.1128,23.536 67.704,6.1349 71.871,-21.89 -23.881,-5.808 -72.793,-27.155 -21.618,-44.811 30.576,-13.448 -56.613,-39.204 -4.5741,-45.464 39.818,39.772 39.841,-21.462 29.4,-46.11 30.809,-8.5148 -19.894,-3.3234 -3.8294,-21.745 -21.079,-20.275 37.019,-24.882 50.91,-9.1264 40.066,-3.5582 12.041,-44.024 29.455,-66.829 z"
         id="path12007"
         inkscape:connector-curvature="0" />
    </g>
  </g>
  <g
     transform="matrix(0.91022475,-0.06383776,0.06324447,0.90176535,-31.110177,17.718183)"
     id="g12009">
    <path
       d="m 174.28,35.875 c -17.6,0 -35.19,6.639 -48.72,19.906 -0.16,0.164 -0.33,0.303 -0.5,0.469 -22.05,22.056 -26.206,55.25 -12.47,81.5 l -2.28,1.63 c 2.25,4.23 4.94,8.3 8.1,12.12 l -13.32,13.34 c -1.34,-0.58 -2.78,-1.03 -4.56,-1.37 l -2.842,2.84 c -1.11,-0.48 -2.139,-0.81 -3.063,-0.87 L 30.5,229.56 c -0.037,1.1 0.226,2.19 0.656,3.28 l -0.531,0.54 -1.094,1.09 c 0.716,3.74 2.011,6.82 5.469,10.28 3.458,3.46 6.42,4.63 10.281,5.47 l 1.094,-1.1 0.719,-0.71 c 1.088,0.46 2.13,0.78 3.094,0.84 l 64.122,-64.13 c -0.24,-0.97 -0.62,-1.93 -1.03,-2.9 l 3,-3 c -0.25,-1.73 -0.68,-3.2 -1.31,-4.6 l 13.28,-13.28 c 3.82,3.16 7.89,5.85 12.13,8.1 l 1.62,-2.28 c 26.25,13.74 59.44,9.58 81.5,-12.47 0.17,-0.17 0.31,-0.34 0.47,-0.5 C 250.66,126.97 250.52,83.267 223.5,56.25 209.91,42.66 192.09,35.875 174.28,35.875 z m -0.5,3.281 c 0.11,0.002 0.21,-0.002 0.31,0 0.95,0.019 1.9,0.066 2.85,0.125 0.96,0.061 1.92,0.148 2.87,0.25 0.1,0.01 0.19,0.021 0.28,0.031 0.1,0.011 0.19,0.021 0.29,0.032 0.14,0.017 0.29,0.044 0.43,0.062 0.9,0.11 1.8,0.228 2.69,0.375 0.62,0.102 1.23,0.224 1.84,0.344 0.35,0.066 0.69,0.116 1.04,0.187 0.72,0.153 1.43,0.324 2.15,0.5 0.31,0.077 0.63,0.138 0.94,0.219 0.07,0.019 0.14,0.043 0.22,0.063 0.95,0.253 1.89,0.516 2.84,0.812 0.07,0.023 0.15,0.04 0.22,0.063 0.95,0.3 1.91,0.625 2.84,0.969 0.06,0.019 0.11,0.042 0.16,0.062 0.95,0.352 1.9,0.728 2.84,1.125 0.06,0.022 0.11,0.041 0.16,0.063 0.94,0.4 1.88,0.836 2.81,1.281 0.04,0.02 0.09,0.042 0.13,0.062 0.93,0.451 1.86,0.91 2.78,1.407 0.03,0.017 0.06,0.044 0.09,0.062 0.93,0.503 1.84,1.013 2.75,1.562 0.03,0.02 0.06,0.044 0.1,0.063 0.9,0.551 1.8,1.122 2.68,1.719 0.55,0.369 1.09,0.769 1.63,1.156 0.36,0.261 0.73,0.512 1.09,0.781 0.02,0.014 0.05,0.018 0.06,0.031 0.88,0.656 1.75,1.36 2.6,2.063 1.74,1.434 3.43,2.963 5.06,4.594 1.62,1.62 3.14,3.3 4.56,5.031 0.01,0.011 0.03,0.02 0.03,0.031 0.71,0.855 1.41,1.715 2.07,2.594 0.28,0.379 0.54,0.773 0.81,1.156 0.37,0.517 0.74,1.038 1.09,1.563 0.02,0.024 0.05,0.038 0.07,0.062 0.59,0.89 1.16,1.778 1.71,2.688 0.02,0.032 0.05,0.061 0.07,0.094 0.54,0.902 1.06,1.829 1.56,2.75 0.02,0.032 0.04,0.06 0.06,0.093 0.5,0.921 0.96,1.844 1.41,2.781 l 0.06,0.126 c 0.45,0.929 0.88,1.868 1.28,2.812 0.02,0.051 0.04,0.105 0.06,0.156 0.4,0.936 0.78,1.895 1.13,2.844 0.02,0.053 0.04,0.104 0.06,0.156 0.35,0.949 0.67,1.885 0.97,2.844 0.02,0.072 0.04,0.147 0.06,0.219 0.3,0.941 0.56,1.894 0.82,2.843 0.02,0.074 0.04,0.146 0.06,0.219 0.08,0.31 0.14,0.627 0.22,0.938 0.17,0.72 0.35,1.432 0.5,2.156 0.07,0.342 0.12,0.688 0.18,1.031 0.12,0.617 0.25,1.225 0.35,1.844 0.15,0.893 0.26,1.791 0.37,2.688 0.02,0.145 0.05,0.291 0.07,0.437 0.01,0.093 0.02,0.188 0.03,0.281 0.01,0.094 0.02,0.187 0.03,0.282 0.1,0.952 0.19,1.912 0.25,2.872 0.06,0.94 0.11,1.9 0.12,2.85 0.01,0.1 0,0.2 0,0.31 0.02,1.05 0.01,2.1 -0.03,3.15 -0.03,0.94 -0.08,1.86 -0.15,2.79 -0.01,0.12 -0.02,0.25 -0.04,0.37 -0.07,0.92 -0.16,1.84 -0.28,2.75 -0.12,0.96 -0.27,1.93 -0.43,2.88 -0.02,0.08 -0.02,0.16 -0.04,0.25 -0.02,0.12 -0.03,0.25 -0.06,0.37 -0.16,0.91 -0.36,1.82 -0.56,2.72 -0.03,0.13 -0.06,0.27 -0.09,0.41 -0.21,0.88 -0.45,1.77 -0.69,2.65 -0.17,0.59 -0.35,1.17 -0.53,1.75 -0.18,0.57 -0.34,1.13 -0.53,1.69 -0.3,0.86 -0.61,1.71 -0.94,2.56 -0.06,0.16 -0.13,0.32 -0.19,0.47 -0.04,0.11 -0.08,0.23 -0.12,0.34 -0.36,0.88 -0.73,1.73 -1.13,2.6 -0.38,0.82 -0.77,1.63 -1.19,2.44 -0.08,0.15 -0.16,0.31 -0.25,0.46 -0.41,0.8 -0.83,1.6 -1.28,2.38 -0.09,0.17 -0.18,0.34 -0.28,0.5 -0.2,0.34 -0.42,0.66 -0.62,1 -0.37,0.59 -0.75,1.17 -1.13,1.75 0,0.01 0.01,0.02 0,0.03 -0.49,0.75 -1,1.49 -1.53,2.22 -0.46,0.64 -0.95,1.25 -1.44,1.87 -0.19,0.26 -0.36,0.53 -0.56,0.79 -0.13,0.16 -0.27,0.33 -0.41,0.5 -0.16,0.2 -0.33,0.39 -0.5,0.59 -0.55,0.67 -1.13,1.32 -1.72,1.97 -0.6,0.67 -1.23,1.35 -1.87,2 -0.16,0.16 -0.31,0.34 -0.47,0.5 -21.13,21.13 -52.26,24.49 -77.19,11.15 l 0.13,-0.18 c -3.71,-1.9 -7.26,-4.14 -10.63,-6.78 -0.54,-0.43 -1.06,-0.87 -1.59,-1.32 -0.51,-0.43 -1.03,-0.86 -1.53,-1.31 -0.09,-0.08 -0.19,-0.16 -0.28,-0.25 -0.82,-0.75 -1.61,-1.52 -2.41,-2.31 -0.79,-0.8 -1.56,-1.59 -2.31,-2.41 -0.09,-0.09 -0.17,-0.19 -0.25,-0.28 -0.45,-0.5 -0.88,-1.02 -1.31,-1.53 -0.45,-0.53 -0.89,-1.05 -1.32,-1.59 -2.64,-3.37 -4.88,-6.92 -6.78,-10.63 l -0.19,0.13 c -13.33,-24.93 -9.97,-56.061 11.16,-77.191 0.16,-0.163 0.34,-0.308 0.5,-0.469 0.65,-0.64 1.33,-1.269 2,-1.875 0.65,-0.588 1.3,-1.162 1.97,-1.719 0.27,-0.227 0.54,-0.465 0.81,-0.687 0.35,-0.278 0.72,-0.512 1.06,-0.782 0.63,-0.483 1.24,-0.98 1.88,-1.437 0.74,-0.53 1.5,-1.036 2.25,-1.531 0.58,-0.383 1.16,-0.764 1.75,-1.125 0.45,-0.274 0.89,-0.551 1.34,-0.813 0.69,-0.395 1.37,-0.757 2.07,-1.125 0.17,-0.093 0.35,-0.189 0.53,-0.281 0.94,-0.491 1.88,-0.966 2.84,-1.406 0.87,-0.397 1.72,-0.769 2.59,-1.125 0.16,-0.062 0.32,-0.096 0.47,-0.157 0.97,-0.384 1.93,-0.758 2.91,-1.093 0.56,-0.192 1.12,-0.356 1.69,-0.532 0.58,-0.181 1.16,-0.367 1.75,-0.531 0.88,-0.246 1.77,-0.48 2.65,-0.687 0.07,-0.017 0.15,-0.015 0.22,-0.032 0.42,-0.095 0.84,-0.193 1.25,-0.281 0.67,-0.141 1.36,-0.287 2.03,-0.406 0.09,-0.015 0.17,-0.017 0.25,-0.031 0.95,-0.164 1.92,-0.317 2.88,-0.438 1.96,-0.247 3.93,-0.401 5.9,-0.469 1.06,-0.035 2.11,-0.046 3.16,-0.031 z"
       clip-path="url(#clipPath8750)"
       transform="matrix(1,0.080878,0,1,0,-21.056)"
       id="path12011"
       inkscape:connector-curvature="0"
       style="fill:#2d3335;filter:url(#filter7286)" />
  </g>
  <g
     transform="translate(-346.57489,-583.84642)"
     id="g12013">
    <g
       transform="matrix(0.89390089,0.89390089,-0.89390089,0.89390089,628.44294,669.69366)"
       id="g12015">
      <path
         d="m -82,136 c -27.61,0 -50,-22.39 -50,-50 0,-27.614 22.39,-50 50,-50 27.614,0 50,22.386 50,50 0,27.61 -22.386,50 -50,50 z m 0,-3 c 26.51,0 48,-20.49 48,-47 0,-26.51 -21.49,-47 -48,-47 -26.51,0 -48,20.49 -48,47 0,26.51 21.49,47 48,47 z"
         id="path12017"
         inkscape:connector-curvature="0"
         style="fill:#2d3335" />
      <path
         d="m -82,136 c -27.61,0 -50,-22.39 -50,-50 v -0.5 c 0.27,27.38 22.55,49.5 50,49.5 27.446,0 49.729,-22.12 50,-49.5 0.002,0.168 0,0.332 0,0.5 0,27.61 -22.386,50 -50,50 z M -130,85.5 V 85 c 0,-26.51 21.49,-47 48,-47 26.51,0 48,20.49 48,47 0,0.168 0.002,0.333 0,0.5 C -34.27,59.234 -55.658,39 -82,39 c -26.34,0 -47.73,20.234 -48,46.5 z"
         id="path12019"
         inkscape:connector-curvature="0"
         style="fill:#9eaaac" />
      <path
         d="m -82,134 c 26.51,0 48,-21.49 48,-48 0,-26.51 -21.49,-48 -48,-48 -26.51,0 -48,21.49 -48,48 0,26.51 21.49,48 48,48 z"
         id="path12021"
         inkscape:connector-curvature="0"
         style="fill:#d0e9f2;fill-opacity:0.47594" />
      <path
         d="m -82,134 c 26.51,0 48,-21.49 48,-48 0,-26.51 -21.49,-48 -48,-48 -26.51,0 -48,21.49 -48,48 0,26.51 21.49,48 48,48 z"
         id="path12023"
         inkscape:connector-curvature="0"
         style="fill:url(#radialGradient7212)" />
      <path
         d="m -96.438,130.72 -0.843,5 c 4.83,1.48 9.965,2.28 15.281,2.28 5.316,0 10.451,-0.8 15.281,-2.28 l -0.843,-5 c -4.553,1.47 -9.397,2.28 -14.438,2.28 -5.041,0 -9.885,-0.81 -14.438,-2.28 z"
         id="path12025"
         inkscape:connector-curvature="0"
         style="fill:url(#linearGradient7214)" />
      <path
         d="m -82,136.25 c 1.757,0 3.431,0.3 5,0.81 v 26.63 c -1.569,0.51 -3.243,0.81 -5,0.81 -1.757,0 -3.431,-0.3 -5,-0.81 v -26.63 c 1.569,-0.51 3.243,-0.81 5,-0.81 z"
         id="path12027"
         inkscape:connector-curvature="0"
         style="fill:url(#linearGradient7216)" />
      <path
         d="m -82,150.5 c 3.514,0 5.613,0.65 8,2.44 v 67.12 c -3.137,0.91 -4.486,1.44 -8,1.44 -3.514,0 -4.863,-0.53 -8,-1.44 v -67.12 c 2.637,-1.79 4.486,-2.44 8,-2.44 z"
         id="path12029"
         inkscape:connector-curvature="0"
         style="fill:url(#linearGradient7218)" />
      <path
         d="m -82,154.5 c 3.514,0 7.238,0.78 10,2.44 v 65.12 c -2.012,1.79 -6.486,2.44 -10,2.44 -3.514,0 -7.863,-0.15 -10,-2.44 v -65.12 c 1.887,-1.66 6.486,-2.44 10,-2.44 z"
         id="path12031"
         inkscape:connector-curvature="0"
         style="fill:url(#linearGradient7220)" />
      <path
         d="m -82,217.5 c 3.514,0 5.863,0.78 8,2.44 v 5.12 c -2.387,1.54 -4.486,2.44 -8,2.44 -3.514,0 -5.738,-0.9 -8,-2.44 v -5.12 c 2.387,-1.91 4.486,-2.44 8,-2.44 z"
         id="path12033"
         inkscape:connector-curvature="0"
         style="fill:url(#linearGradient7222)" />
      <path
         d="m -82,221.5 c -3.514,0 -5.613,0.28 -8,2.44 v 1.12 c 2.262,1.54 4.486,2.44 8,2.44 3.514,0 5.613,-0.9 8,-2.44 v -1.12 c -2.512,-2.04 -4.486,-2.44 -8,-2.44 z"
         id="path12035"
         inkscape:connector-curvature="0"
         style="fill:#e0bb41" />
    </g>
  </g>
  <text
     style="font-size:40px;font-style:normal;font-variant:normal;font-weight:normal;font-stretch:normal;line-height:125%;letter-spacing:0px;word-spacing:0px;fill:#000000;font-family:Hero"
     font-weight="normal"
     xml:space="preserve"
     font-size="40px"
     font-stretch="normal"
     line-height="125%"
     font-variant="normal"
     y="-200.83694"
     x="-254.95139"
     font-style="normal"
     id="text12037"
     sodipodi:linespacing="125%"><tspan
       y="-200.83694"
       x="-254.95139"
       font-weight="normal"
       id="tspan12039"
       style="font-weight:normal;fill:#ffffff" /></text>
  <text
     style="font-size:72px;font-style:normal;font-variant:normal;font-weight:normal;font-stretch:normal;line-height:125%;letter-spacing:0px;word-spacing:0px;fill:#000000;font-family:'王漢宗特圓體繁'"
     font-weight="normal"
     xml:space="preserve"
     font-size="72px"
     font-stretch="normal"
     line-height="125%"
     font-variant="normal"
     y="-186.26337"
     x="-276.10107"
     font-style="normal"
     id="text12041"
     sodipodi:linespacing="125%"><tspan
       font-weight="normal"
       font-style="normal"
       font-stretch="normal"
       font-variant="normal"
       y="-186.26337"
       x="-276.10107"
       id="tspan12043"
       style="font-style:normal;font-variant:normal;font-weight:normal;font-stretch:normal;fill:#ffffff;font-family:'王漢宗特圓體繁'" /></text>
  <text
     font-size="19.79997063px"
     xml:space="preserve"
     transform="matrix(0.98796146,-0.15470023,0.15470023,0.98796146,0,0)"
     y="76.727264"
     x="67.176918"
     font-weight="bold"
     id="text12045"
     style="font-size:19.79997063px;font-weight:bold;fill:url(#radialGradient7224);font-family:Monospace"><tspan
       y="76.727264"
       x="67.176918"
       id="tspan12047"
       style="fill:url(#radialGradient7224)">01011001</tspan><tspan
       y="101.47691"
       x="67.176918"
       id="tspan12049"
       style="fill:url(#radialGradient7224)">00110101</tspan><tspan
       y="126.22653"
       x="67.176918"
       id="tspan12051"
       style="fill:url(#radialGradient7224)">10010011</tspan><tspan
       y="150.97618"
       x="67.176918"
       id="tspan12053"
       style="fill:url(#radialGradient7224)" /></text>
</svg>
