<?xml version="1.0" encoding="UTF-8" standalone="no"?>
<!-- Created with Inkscape (http://www.inkscape.org/) -->

<svg
   xmlns:dc="http://purl.org/dc/elements/1.1/"
   xmlns:cc="http://creativecommons.org/ns#"
   xmlns:rdf="http://www.w3.org/1999/02/22-rdf-syntax-ns#"
   xmlns:svg="http://www.w3.org/2000/svg"
   xmlns="http://www.w3.org/2000/svg"
   xmlns:sodipodi="http://sodipodi.sourceforge.net/DTD/sodipodi-0.dtd"
   xmlns:inkscape="http://www.inkscape.org/namespaces/inkscape"
   version="1.1"
   width="283.37"
   height="283.37"
   id="svg2985"
   inkscape:version="0.48.3.1 r9886"
   sodipodi:docname="Openstreetmap-icon2-hk.svg">
  <sodipodi:namedview
     pagecolor="#ffffff"
     bordercolor="#666666"
     borderopacity="1"
     objecttolerance="10"
     gridtolerance="10"
     guidetolerance="10"
     inkscape:pageopacity="0"
     inkscape:pageshadow="2"
     inkscape:window-width="738"
     inkscape:window-height="480"
     id="namedview11501"
     showgrid="false"
     inkscape:zoom="0.83708724"
     inkscape:cx="141.685"
     inkscape:cy="140.965"
     inkscape:window-x="0"
     inkscape:window-y="24"
     inkscape:window-maximized="0"
     inkscape:current-layer="svg2985" />
  <defs
     id="defs2987">
    <filter
       color-interpolation-filters="sRGB"
       id="filter8725-7">
      <feGaussianBlur
         id="feGaussianBlur2990"
         stdDeviation="4.4575" />
    </filter>
    <linearGradient
       x1="122"
       y1="245.45"
       x2="122"
       y2="4.302"
       id="linearGradient7210"
       gradientUnits="userSpaceOnUse">
      <stop
         id="stop2993"
         style="stop-color:#000000;stop-opacity:1"
         offset="0" />
      <stop
         id="stop2995"
         style="stop-color:#000000;stop-opacity:0"
         offset="1" />
    </linearGradient>
    <filter
       x="-0.5732277"
       y="-0.47787949"
       width="2.1464553"
       height="1.955759"
       color-interpolation-filters="sRGB"
       id="filter6394">
      <feGaussianBlur
         id="feGaussianBlur2998"
         stdDeviation="4.721101" />
    </filter>
    <filter
       x="-0.573228"
       y="-0.47787949"
       width="2.146456"
       height="1.955759"
       color-interpolation-filters="sRGB"
       id="filter6398">
      <feGaussianBlur
         id="feGaussianBlur3001"
         stdDeviation="4.721101" />
    </filter>
    <filter
       x="-0.573228"
       y="-0.47787952"
       width="2.146456"
       height="1.955759"
       color-interpolation-filters="sRGB"
       id="filter6402">
      <feGaussianBlur
         id="feGaussianBlur3004"
         stdDeviation="4.721101" />
    </filter>
    <filter
       x="-0.58951294"
       y="-0.21101891"
       width="2.1790259"
       height="1.4220378"
       color-interpolation-filters="sRGB"
       id="filter6406">
      <feGaussianBlur
         id="feGaussianBlur3007"
         stdDeviation="4.721101" />
    </filter>
    <filter
       x="-0.18165977"
       y="-0.90777969"
       width="1.3633195"
       height="2.8155594"
       color-interpolation-filters="sRGB"
       id="filter6410">
      <feGaussianBlur
         id="feGaussianBlur3010"
         stdDeviation="4.721101" />
    </filter>
    <filter
       x="-0.22707468"
       y="-0.25476673"
       width="1.4541494"
       height="1.5095335"
       color-interpolation-filters="sRGB"
       id="filter6414">
      <feGaussianBlur
         id="feGaussianBlur3013"
         stdDeviation="4.721101" />
    </filter>
    <mask
       id="mask5653">
      <g
         transform="matrix(0.17452941,0,0,0.17459573,218.94733,-97.854091)"
         id="g3016"
         style="fill:#ffffff">
        <g
           transform="matrix(0.97330254,0,0,0.97330254,13.372633,5.428377)"
           id="g3018">
          <path
             d="m 899.18,1593.2 c -12.653,-24.498 -16.374,-59.643 -16.207,-85.158 28.682,-15.651 3.7602,-45.008 -17.524,-52.729 -9.7922,-30.988 -81.941,-64.497 -107.39,-31.414 -17.275,14.067 -39.457,3.9389 -53.123,10.916 -16.576,-33.429 -86.71,-18.628 -95.556,13.754 21.193,37.751 41.747,73.95 91.766,65.404 6.3876,15.304 20.175,57.173 27.842,16.077 14.071,-34.547 36.464,11.549 47.808,16.19 -5.2298,24.049 3.9238,27.746 2.8242,45.753 43.987,-41.709 14.662,22.603 30.488,36.948 28.457,-1.3458 5.948,-35.516 7.0661,-50.394 -31.039,-24.966 49.314,-27.441 11.526,-54.012 -12.777,-24.269 37.913,8.3532 24.313,23.181 3.4936,27.678 14.385,64.216 51.929,50.736 l -3.0953,-2.3022 -2.6647,-2.9498 z"
             id="path3020"
             inkscape:connector-curvature="0" />
          <path
             d="m 694.04,1520 c -51.562,-27.115 -1.9618,42.795 3.3217,8.1616 l -3.32,-8.2 z"
             id="path3022"
             inkscape:connector-curvature="0" />
          <path
             d="M 742.98,1429.9 z"
             id="path3024"
             inkscape:connector-curvature="0" />
        </g>
        <path
           d="m 646.35,1626.9 c -14.208,-35.108 2.2564,-25.212 21.543,-10.426 -27.713,-26.668 -7.294,-47.982 21.769,-52.04 -16.918,-23.977 -94.613,30.658 -51.196,-13.182 13.135,-19.952 -36.282,-13.266 -25.101,-44.28 -1.6364,-28.841 -38.148,3.4137 -23.736,20.872 -33.487,33.145 43.452,-10.623 24.075,35.591 7.7903,24.413 -31.542,72.095 15.494,58.391 8.8165,-9.9625 10.041,3.2622 17.152,5.0732 z"
           id="path3026"
           inkscape:connector-curvature="0" />
        <path
           d="M 862.55,1621.3 z"
           id="path3028"
           inkscape:connector-curvature="0" />
        <path
           d="m 964.21,1463.4 c -11.507,-34.274 -48.772,42.624 -8.0775,24.86 10.166,3.2469 12.842,-19.462 8.0775,-24.86 z"
           id="path3030"
           inkscape:connector-curvature="0" />
        <path
           d="m 588.16,1229.1 c -28.838,-18.564 -83.362,9.2784 -39.197,38.931 11.504,14.97 -8.1029,47.416 29.927,32.087 48.884,6.1442 6.4837,-49.862 9.2693,-71.018 z"
           id="path3032"
           inkscape:connector-curvature="0" />
        <path
           d="m 871.27,1014.2 c -35.37,-20.081 -20.056,-45.471 -8.879,-74.109 -15.705,-36.731 41.086,37.428 56.857,-0.67648 9.164,-8.3807 39.643,-6.4894 23.605,8.0799 32.249,-6.0275 -14.252,38.466 -31.654,29.71 -37.29,17.795 21.373,14.881 -39.929,36.99498 z m 188.97,191.97 c -14.701,-15.864 -39.681,-72.869 -5.5828,-39.297 12.338,-12.142 18.891,30.793 31.495,-0.4338 23.5,-17.64 -4.9749,46.656 29.21,7.3801 0.1138,17.148 -29.425,29.522 5.0357,40.446 -9.2889,33.413 -45.129,0.3496 -60.158,-8.0953 z m 105.14,-113.99 c 21.09,-49.801 -31.43,-22.478 -56.509,-36.957 -6.1466,-11.224 7.3887,-55.033 -14.188,-35.044 -18.531,16.138 -12.473,49.757 -12.433,74.094 -31.295,10.074 1.0871,-36.51 -23.423,-32.954 -14.361,43.931 -23.838,-4.0027 -8.0155,-22.428 -24.275,-31.5 35.13,-40.31 0.6455,-66.041 12.408,31.798 -44.692,52.129 -21.147,10.873 -22.025,2.5892 -11.771,-28.207 -33.143,-1.6354 -24.049,8.2832 -10.109,49.519 -39.506,36.869 -3.5731,14.189 -37.086,14.541 -21.415,32.041 16.673,26.645 8.4145,39.648 -13.563,57.718 7.78,29.358 -28.358,-16.113 -8.175,-25.103 -11.287,-25.687 -53.155,-5.4782 -65.135,-19.686 -10.653,20.259 -45.941,34.511 -36.327,66.103 -28.744,-16.764 0.95351,-54.27 -40.712,-63.929 -22.375,-11.836 -46.226,-19.064 -59.471,-36.415 33.137,11.832 51.812,-24.34 80.85,-12.311 -6.0694,24.246 30.36,16.248 1.2381,-1.9001 -29.663,-43.982 55.73,-36.655 64.14,-1.6446 23.769,40.987 48.616,-46.541 86.766,-35.182 36.972,-18.78 65.61,-45.045 95.3,-74.807 -20.504,-7.0529 -66.545,43.585 -85.516,4.0502 -8.7444,13.522 -20.471,-22.941 -41.088,0.30499 -2.933,-30 18.49,-7.8832 26.585,-38.045 -21.309,13.132 -0.47478,-21.813 -27.322,-2.9409 -35.582,14.995 2.9553,-33.432 -17.044,-17.009 5.0686,-16.629 -17.14,-12.961 -10.865,-33.065 -11.028,13.349 -36.529,-12.716 -37.118,26.414 -32.256,33.095 -84.133,26.96 -41.421,-15.257 48.092,-14.58 -35.015,-41.573 -55.77,-27.327 -31.895,-11.451 -76.669,-24.169 -82.059,25.524 -46.242,-4.2266 -71.177,44.248 -114.46,15.529 -35.275,5.4114 5.189,50.37 -37.698,42.572 -34.208,-10.058 -26.775,50.61 -65.916,29.856 -48.395,7.5535 7.0502,93.23101 -32.401,49.886 -27.629,9.617 -70.893,26.757 -57.544,54.22201 -28.774,-36.73101 75.321,-60.78001 9.8738,-75.81901 -25.669,26.174 -36.189,68.90201 -73.856,83.45001 -36.892,6.0066 -32.109,73.736 -74.893,69.041 -19.571,-10.649 -73.664,41.276 -24.033,43.203 9.9977,22.531 9.6576,44.87 5.1406,65.248 16.602,11.075 36.434,37.705 39.369,14.586 23.142,25.879 35.801,-30.69 66.26,-15.134 -16.557,-19.359 23.382,-101.54 5.2145,-39.466 -23.8,36.328 55.725,25.996 45.475,55.533 20.157,15.317 58.875,-17.44 48.505,15.156 38.735,17.538 71.965,-30.004 106.81,-16.069 21.89,-6.8363 51.565,-9.5167 73.127,-9.3615 11.267,30.678 27.618,71.904 44.408,87.852 19.262,0.1011 -43.812,26.742 5.0541,25.033 26.513,10.259 25.83,-6.3448 17.707,-22.475 50.191,-1.3901 6.7271,84.624 50.107,55.37 -6.6831,42.811 65.961,1.7916 48.387,-25.462 12.872,-37.626 67.807,56.16 34.681,-1.343 39.236,-4.4808 46.292,79.422 77.553,53.021 25.839,-10.48 -1.2896,-54.364 24.498,-26.747 30.652,-28.679 -0.77637,25.553 23.04,30.803 -21.191,22.142 4.9837,77.561 27.736,38.566 18.673,10.26 49.545,25.46 32.788,5.4882 4.4298,-20.572 -1.1934,-30.759 -14.835,-10.729 0.99933,-11.049 -24.28,-40.852 2.0186,-33.44 50.619,15.782 26.074,-73.69 -4.9349,-33.887 5.2033,-36.028 -18.506,-31.278 -39.347,-40.862 -16.72,-23.131 1.8871,-79.936 -40.902,-65.012 8.796,-15.6 28.639,-63.95 35.588,-19.493 -17.215,12.165 14.469,3.4526 9.6382,22.358 13.599,-18.997 -15.222,-33.114 -5.0428,-56.696 2.3305,-15.694 16.712,-59.783 39.651,-25.652 20.227,-0.2869 28.617,17.812 45.468,-9.2867 32.011,-26.602 -11.61,27.305 22.094,29.536 22.206,2.2749 23.996,22.744 12.467,38.44 26.494,6.0968 11.225,49.944 38.856,17.438 2.3384,18.776 17.86,59.286 15.753,16.393 -1.6507,-21.216 15.607,-0.1551 13.884,-17.074 40.429,14.649 6.1742,-55.394 35.449,-43.718 5.6184,28.904 21.087,12.488 5.3242,-6.2282 27.521,-10.786 -22.02,-49.16 -32.421,-42.642 -6.0034,-10.893 30.436,-75.291 52.127,-39.378 22.948,20.567 17.842,-15.17 0.082,-16.916 z"
           id="path3034"
           inkscape:connector-curvature="0" />
      </g>
    </mask>
    <radialGradient
       cx="351.95001"
       cy="138.44"
       r="38.724998"
       id="radialGradient5675"
       gradientUnits="userSpaceOnUse"
       gradientTransform="matrix(1,0,0,0.981658,0,2.5393266)">
      <stop
         id="stop3037"
         style="stop-color:#076407;stop-opacity:1"
         offset="0" />
      <stop
         id="stop3039"
         style="stop-color:#458a45;stop-opacity:0.74901962"
         offset="0.59596002" />
      <stop
         id="stop3041"
         style="stop-color:#83b183;stop-opacity:0.49803922"
         offset="0.80603999" />
      <stop
         id="stop3043"
         style="stop-color:#ffffff;stop-opacity:0"
         offset="1" />
    </radialGradient>
    <clipPath
       id="clipPath5739">
      <path
         d="m 291.57,89.433 10.299,15.982 9.944,-16.337 24.505,16.692 26.636,-17.402 11.365,17.047 9.2338,-17.047 -0.1471,-122.08 -91.272,0.35514 z"
         id="path3046"
         style="fill:none;stroke:#000000;stroke-width:1px;stroke-linecap:butt;stroke-linejoin:miter"
         inkscape:connector-curvature="0" />
    </clipPath>
    <clipPath
       id="clipPath5739-4">
      <path
         d="m 291.57,89.433 10.299,15.982 9.944,-16.337 24.505,16.692 26.636,-17.402 11.365,17.047 9.2338,-17.047 -0.1471,-122.08 -91.272,0.35514 z"
         id="path3049"
         style="fill:none;stroke:#000000;stroke-width:1px;stroke-linecap:butt;stroke-linejoin:miter"
         inkscape:connector-curvature="0" />
    </clipPath>
    <filter
       x="-0.23635739"
       y="-0.09341415"
       width="1.4727148"
       height="1.1868283"
       color-interpolation-filters="sRGB"
       id="filter5909">
      <feGaussianBlur
         id="feGaussianBlur3052"
         stdDeviation="9.0943364" />
    </filter>
    <linearGradient
       x1="323.20999"
       y1="132.88"
       x2="343.54999"
       y2="132.88"
       id="linearGradient5933"
       gradientUnits="userSpaceOnUse">
      <stop
         id="stop3055"
         style="stop-color:#000000;stop-opacity:1"
         offset="0" />
      <stop
         id="stop3057"
         style="stop-color:#707070;stop-opacity:1"
         offset="0.29769999" />
      <stop
         id="stop3059"
         style="stop-color:#484848;stop-opacity:1"
         offset="1" />
    </linearGradient>
    <linearGradient
       x1="286.07001"
       y1="-68.903"
       x2="377.29001"
       y2="-68.903"
       id="linearGradient5935"
       gradientUnits="userSpaceOnUse"
       gradientTransform="translate(0.251125,0.50225)">
      <stop
         id="stop3062"
         style="stop-color:#5a5a5a;stop-opacity:1"
         offset="0" />
      <stop
         id="stop3064"
         style="stop-color:#c5c5c5;stop-opacity:1"
         offset="0.16413" />
      <stop
         id="stop3066"
         style="stop-color:#828282;stop-opacity:1"
         offset="1" />
    </linearGradient>
    <linearGradient
       x1="286.78"
       y1="-81.615997"
       x2="376.69"
       y2="-81.615997"
       id="linearGradient5937"
       gradientUnits="userSpaceOnUse">
      <stop
         id="stop3069"
         style="stop-color:#f477bf;stop-opacity:1"
         offset="0" />
      <stop
         id="stop3071"
         style="stop-color:#fbcee8;stop-opacity:0.98431373"
         offset="0.19832" />
      <stop
         id="stop3073"
         style="stop-color:#f370bc;stop-opacity:0.96875"
         offset="1" />
    </linearGradient>
  </defs>
  <metadata
     id="metadata3075">
    <rdf:RDF>
      <cc:Work
         rdf:about="">
        <dc:format>image/svg+xml</dc:format>
        <dc:type
           rdf:resource="http://purl.org/dc/dcmitype/StillImage" />
        <dc:title></dc:title>
      </cc:Work>
    </rdf:RDF>
  </metadata>
  <g
     transform="translate(-348.79314,-357.55644)"
     id="g3077">
    <g
       transform="translate(532.093,497.23099)"
       id="g3079">
      <g
         transform="translate(0,-10)"
         id="g3081">
        <path
           d="m 9,17.25 c 0,0 7.5,11 11.75,25.75 C 25,57.75 27,68.5 27,68.5 c 0,0 -5.5,12.75 -8.25,24.75 -2.75,12 -5.75,25 -5.75,25 0,0 5.75,16 9.25,30 3.5,14 3.75,22.25 3.75,22.25 0,0 -4,10.25 -7.5,24.25 -3.5,14 -5,30.75 -5,30.75 0,0 9.25,-2 28.5,1.25 19.25,3.25 32.25,6 32.25,6 0,0 12.75,-2.75 24,-6.25 11.25,-3.5 16.25,-6.5 16.25,-6.5 0,0 5.5,0.5 22.5,6.25 17,5.75 29.25,8.5 29.25,8.5 0,0 13,-2.75 26,-5.75 13,-3 26.5,-8 26.5,-8 0,0 -0.75,-5 4.25,-24.5 5,-19.5 8.75,-28 8.75,-28 0,0 -0.5,-2.5 -3.75,-17.75 C 224.75,135.5 218,121 218,121 c 0,0 1.75,-12.5 6.75,-25.75 C 229.75,82 235,68.5 235,68.5 c 0,0 -4.75,-15.25 -7.5,-29.75 C 224.75,24.25 219.25,15 219.25,15 c 0,0 -24.25,9 -31.75,10.5 -7.5,1.5 -21,5.25 -21,5.25 0,0 -9.75,-4.25 -22,-8.5 -12.25,-4.25 -29.75,-5.5 -29.75,-5.5 0,0 -3.25,3.5 -22,8 -18.75,4.5 -27.5,5.75 -27.5,5.75 0,0 -18.5,-9 -31.5,-11.5 -13,-2.5 -24,-2 -24.75,-1.75 z"
           transform="matrix(1,0,0,0.84657,-181.60186,-54.094074)"
           id="path3083"
           style="opacity:0.5;fill:url(#linearGradient7210);filter:url(#filter8725-7)"
           inkscape:connector-curvature="0" />
      </g>
    </g>
    <g
       transform="translate(342.26249,581.84116)"
       id="g3085"
       style="opacity:0.50435001">
      <path
         d="m 219.25,10 c 0,0 -24.25,9 -31.75,10.5 -7.5,1.5 -21,5.25 -21,5.25 0,0 -9.75,-4.25 -22,-8.5 -12.25,-4.25 -29.75,-5.5 -29.75,-5.5 0,0 -3.25,3.5 -22,8 -18.75,4.5 -27.5,5.75 -27.5,5.75 0,0 -18.5,-9 -31.5,-11.5 -13,-2.5 -24,-2 -24.75,-1.75 0,0 7.5,13 11.75,27.75 C 25,54.75 27,65.5 27,65.5 l 51.469,5.125 48.971,-4 52.25,12.031 c 10.38,-4.418 52.11,-4.9 55.31,-13.156 0,0 -4.75,-15.25 -7.5,-29.75 C 224.75,21.25 219.25,10 219.25,10 z"
         transform="translate(0,-192)"
         id="path3087"
         style="fill:#b1e479"
         inkscape:connector-curvature="0" />
      <path
         d="m 27,65.5 c 0,0 -5.5,12.75 -8.25,24.75 -2.75,12 -5.75,23 -5.75,23 l 50.969,16.37 53.721,-15.74 52.25,17.53 c 16.36,-4.26 32.39,-9.12 48.06,-15.41 0,0 1.75,-10.5 6.75,-23.75 C 229.75,79 235,65.5 235,65.5 c -3.2,8.256 -44.93,8.738 -55.31,13.156 l -52.25,-12.031 -47.971,4 L 27,65.5 z"
         transform="translate(0,-192)"
         id="path3089"
         style="fill:#87d531"
         inkscape:connector-curvature="0" />
      <path
         d="m 231.75,165.5 c -17.9,7.67 -35.94,14.9 -54.31,21.41 l -52.25,-18.53 -50.221,9 L 26,167.5 c 0,0 -4,10.25 -7.5,24.25 -3.5,14 -5,30.75 -5,30.75 0,0 9.25,-2 28.5,1.25 19.25,3.25 32.25,6 32.25,6 0,0 12.75,-2.75 24,-6.25 11.25,-3.5 16.25,-6.5 16.25,-6.5 0,0 5.5,0.5 22.5,6.25 17,5.75 29.25,8.5 29.25,8.5 0,0 13,-2.75 26,-5.75 13,-3 26.5,-8 26.5,-8 0,0 -0.75,-5 4.25,-24.5 5,-19.5 8.75,-28 8.75,-28 z"
         transform="translate(0,-192)"
         id="path3091"
         style="fill:#ceeeab"
         inkscape:connector-curvature="0" />
      <path
         d="m 13,113.25 c 0,0 5.75,16 9.25,30 3.5,14 3.75,24.25 3.75,24.25 l 48.969,9.88 50.221,-9 52.25,18.53 c 18.37,-6.51 36.41,-13.74 54.31,-21.41 0,0 -0.5,-4.5 -3.75,-19.75 C 224.75,130.5 218,116 218,116 c -15.67,6.29 -31.7,11.15 -48.06,15.41 L 117.69,113.88 63.969,129.62 13,113.25 z"
         transform="translate(0,-192)"
         id="path3093"
         style="fill:#b9e787"
         inkscape:connector-curvature="0" />
    </g>
    <g
       transform="translate(342.26249,401.84116)"
       id="g3095"
       style="opacity:0.52174">
      <path
         d="M 13.719,0.03125 C 10.99,0.02425 9.2812,0.15625 9,0.25 9,0.25 16.5,13.25 20.75,28 25,42.75 27,53.5 27,53.5 c 0,0 -5.5,12.75 -8.25,24.75 -2.75,12 -5.75,23 -5.75,23 0,0 5.75,16 9.25,30 3.5,14 3.75,24.25 3.75,24.25 0,0 -4,10.25 -7.5,24.25 -3.5,14 -5,30.75 -5,30.75 0,0 9.25,-2 28.5,1.25 19.25,3.25 32.25,6 32.25,6 L 75.75,164.5 63.5,118 79.5,58.25 C 77.28,42.77 70.432,28.204 65.25,13.5 65.25,13.5 46.75,4.5 33.75,2 25.625,0.4375 18.267,0.0435 13.719,0.0312 z"
         id="path3097"
         style="fill:#83d32b"
         inkscape:connector-curvature="0" />
      <path
         d="m 114.75,-0.25 c 0,0 -3.25,3.5 -22,8 -18.75,4.5 -27.5,5.75 -27.5,5.75 5.182,14.704 12.03,29.27 14.25,44.75 l -16,59.75 12.25,46.5 -1.5,53.25 c 0,0 12.75,-2.75 24,-6.25 C 109.5,208 114.5,205 114.5,205 l 11.25,-48.5 -8.25,-54.25 11.75,-45 c -3.44,-9.727 -8.06,-56.93 -14.5,-57.5 z"
         id="path3099"
         style="fill:#b1e479"
         inkscape:connector-curvature="0" />
      <path
         d="m 219.25,-2 c 0,0 -24.25,9 -31.75,10.5 -7.5,1.5 -21,5.25 -21,5.25 4.92,-1.358 11.44,45.392 14.25,52.25 l -11.25,53.25 9.5,55 -12.75,45.5 c 0,0 13,-2.75 26,-5.75 13,-3 26.5,-8 26.5,-8 0,0 -0.75,-5 4.25,-24.5 5,-19.5 8.75,-28 8.75,-28 0,0 -0.5,-4.5 -3.75,-19.75 C 224.75,118.5 218,104 218,104 c 0,0 1.75,-10.5 6.75,-23.75 C 229.75,67 235,53.5 235,53.5 c 0,0 -4.75,-15.25 -7.5,-29.75 C 224.75,9.25 219.25,-2 219.25,-2 z"
         id="path3101"
         style="fill:#a4df62"
         inkscape:connector-curvature="0" />
      <path
         d="m 114.75,-0.25 c 6.44,0.57024 11.06,47.773 14.5,57.5 l -11.75,45 8.25,53.25 -11.25,49.5 c 0,0 5.5,0.5 22.5,6.25 17,5.75 29.25,8.5 29.25,8.5 l 12.75,-45.5 -9.5,-55 L 180.75,66 c -2.81,-6.858 -9.33,-53.608 -14.25,-52.25 0,0 -9.75,-4.25 -22,-8.5 -12.25,-4.25 -29.75,-5.5 -29.75,-5.5 z"
         id="path3103"
         style="fill:#ceeeab"
         inkscape:connector-curvature="0" />
    </g>
    <g
       transform="matrix(0.17452941,0,0,0.17459573,574.12515,289.63797)"
       id="g3105"
       style="fill:#008000">
      <path
         d="m 388.17,138.44 c 0,19.614 -16.218,35.514 -36.225,35.514 -20.006,0 -36.225,-15.9 -36.225,-35.514 0,-19.614 16.218,-35.514 36.225,-35.514 20.006,0 36.225,15.9 36.225,35.514 z"
         transform="matrix(16.091368,0,0,16.085255,-6287.5496,-969.42267)"
         mask="url(#mask5653)"
         id="path3107"
         style="fill:url(#radialGradient5675)"
         inkscape:connector-curvature="0" />
    </g>
  </g>
  <g
     transform="translate(-0.59113005,42.284724)"
     id="g3109">
    <path
       d="m 73.611,130.08 c 0,5.4354 -6.2118,11.453 -9.7835,13.869 -4.1675,-2.6178 -9.982,-8.4335 -9.982,-13.869 0,-5.4354 4.4247,-9.8415 9.8832,-9.8415 5.4581,0 9.8832,4.4062 9.8832,9.8415 z"
       id="path3111"
       style="fill:#000000;filter:url(#filter6398)"
       inkscape:connector-curvature="0" />
    <path
       d="m 160.93,137.67 c 0,5.4354 -6.2118,11.453 -9.7835,13.869 -4.1675,-2.6178 -9.982,-8.4335 -9.982,-13.869 0,-5.4354 4.4247,-9.8415 9.8832,-9.8415 5.4581,0 9.8832,4.4062 9.8832,9.8415 z"
       id="path3113"
       style="fill:#000000;filter:url(#filter6394)"
       inkscape:connector-curvature="0" />
    <path
       d="m 136.41,72.971 c 22.78,13.559 18.983,53.695 18.983,53.695"
       id="path3115"
       style="fill:none;stroke:#000000;stroke-width:5;stroke-linecap:butt;stroke-linejoin:miter;stroke-miterlimit:4;stroke-dasharray:10, 5;stroke-dashoffset:0;filter:url(#filter6406)"
       inkscape:connector-curvature="0" />
    <path
       d="m 140.75,148.36 c -27.119,24.407 -62.373,-2.1695 -62.373,-2.1695"
       id="path3117"
       style="fill:none;stroke:#000000;stroke-width:5;stroke-linecap:butt;stroke-linejoin:miter;stroke-miterlimit:4;stroke-dasharray:10, 5;stroke-dashoffset:0;filter:url(#filter6410)"
       inkscape:connector-curvature="0" />
    <path
       d="M 61.017,114.19 C 78.915,70.801 110.92,69.716 110.92,69.716"
       id="path3119"
       style="fill:none;stroke:#000000;stroke-width:5;stroke-linecap:butt;stroke-linejoin:miter;stroke-miterlimit:4;stroke-dasharray:10, 5;stroke-dashoffset:0;filter:url(#filter6414)"
       inkscape:connector-curvature="0" />
    <path
       d="m 132.19,66.076 c 0,5.4354 -6.2118,11.453 -9.7835,13.869 -4.1675,-2.6178 -9.982,-8.4335 -9.982,-13.869 0,-5.4354 4.4247,-9.8415 9.8832,-9.8415 5.4581,0 9.8832,4.4062 9.8832,9.8415 z"
       id="path3121"
       style="fill:#000000;filter:url(#filter6402)"
       inkscape:connector-curvature="0" />
  </g>
  <path
     d="m 129.16,105.63001 c 0,5.4354 -6.2118,11.453 -9.7835,13.869 -4.1675,-2.6178 -9.982,-8.4335 -9.982,-13.869 0,-5.4354 4.4247,-9.841498 9.8832,-9.841498 5.4581,0 9.8832,4.406198 9.8832,9.841498 z"
     id="path3123"
     style="fill:#ff0000;stroke:#ffffff;stroke-width:2;stroke-miterlimit:4;stroke-dasharray:none"
     inkscape:connector-curvature="0" />
  <path
     d="m 157.9,177.22001 c 0,5.4354 -6.2118,11.453 -9.7835,13.869 -4.1675,-2.6178 -9.982,-8.4335 -9.982,-13.869 0,-5.4354 4.4247,-9.8415 9.8832,-9.8415 5.4581,0 9.8832,4.4062 9.8832,9.8415 z"
     id="path3125"
     style="fill:#800080;stroke:#ffffff;stroke-width:2;stroke-miterlimit:4;stroke-dasharray:none"
     inkscape:connector-curvature="0" />
  <path
     d="m 137.72,187.91001 c -27.119,24.407 -62.373,-2.1695 -62.373,-2.1695"
     id="path3127"
     style="fill:none;stroke:#ffffff;stroke-width:5;stroke-linecap:butt;stroke-linejoin:miter;stroke-miterlimit:4;stroke-dasharray:10, 5;stroke-dashoffset:0"
     inkscape:connector-curvature="0" />
  <path
     d="m 133.38,112.52001 c 22.78,13.559 18.983,53.695 18.983,53.695"
     id="path3129"
     style="fill:none;stroke:#ffffff;stroke-width:5;stroke-linecap:butt;stroke-linejoin:miter;stroke-miterlimit:4;stroke-dasharray:10, 5;stroke-dashoffset:0"
     inkscape:connector-curvature="0" />
  <path
     d="m 70.579,169.62001 c 0,5.4354 -6.2118,11.453 -9.7835,13.869 -4.1675,-2.6178 -9.982,-8.4335 -9.982,-13.869 0,-5.4354 4.4247,-9.8415 9.8832,-9.8415 5.4581,0 9.8832,4.4062 9.8832,9.8415 z"
     id="path3131"
     style="fill:#0000ff;stroke:#ffffff;stroke-width:2;stroke-miterlimit:4;stroke-dasharray:none"
     inkscape:connector-curvature="0" />
  <path
     d="m 57.985,153.74001 c 17.899,-43.392 49.894,-44.477 49.894,-44.477"
     id="path3133"
     style="fill:none;stroke:#ffffff;stroke-width:5;stroke-linecap:butt;stroke-linejoin:miter;stroke-miterlimit:4;stroke-dasharray:10, 5;stroke-dashoffset:0"
     inkscape:connector-curvature="0" />
  <g
     transform="matrix(0.51509076,0.55773595,-0.55773595,0.51509076,23.10753,-110.00716)"
     id="g3135">
    <g
       transform="translate(12.953854,4.8734943)"
       id="g3137"
       style="opacity:0.44737998;fill:#000000;filter:url(#filter5909)">
      <path
         d="m 285.54,68.48 39.776,60.139 16.337,-0.58387 35.514,-58.972 z"
         id="path3139"
         inkscape:connector-curvature="0" />
      <g
         transform="translate(-6.027,-20.59225)"
         clip-path="url(#clipPath5739-4)"
         id="g3141">
        <rect
           width="51.140999"
           height="139.92999"
           ry="3.4191"
           x="291.22"
           y="-34.512001"
           id="rect3143" />
        <rect
           width="51.140999"
           height="139.92999"
           ry="3.4191"
           x="332.42001"
           y="-34.157001"
           id="rect3145" />
        <rect
           width="51.140999"
           height="139.92999"
           ry="3.4191"
           x="311.82001"
           y="-34.157001"
           id="rect3147" />
      </g>
      <path
         d="m 323.21,125.14 20.344,-0.0354 -6.2934,14.037 c -1.1538,2.0178 -5.3764,2.0094 -6.7221,0.0229 z"
         id="path3149"
         inkscape:connector-curvature="0" />
      <rect
         width="91.216003"
         height="21.385"
         ry="0"
         x="286.32001"
         y="-73.568001"
         id="rect3151" />
      <path
         d="m 286.41,-73.329 0,-7.1571 c 0,0 8.3335,-7.4893 19.964,-10.422 11.631,-2.9324 38.291,-2.6332 49.723,0 11.432,2.6332 21.094,9.4172 21.094,9.4172 l 0.25113,8.1616 z"
         id="path3153"
         inkscape:connector-curvature="0" />
    </g>
    <path
       d="m 285.54,68.48 39.776,60.139 16.337,-0.58387 35.514,-58.972 z"
       id="path3155"
       style="fill:#fff995"
       inkscape:connector-curvature="0" />
    <g
       transform="translate(-6.027,-20.59225)"
       clip-path="url(#clipPath5739)"
       id="g3157">
      <rect
         width="51.140999"
         height="139.92999"
         ry="3.4191"
         x="291.22"
         y="-34.512001"
         id="rect3159"
         style="fill:#fff53a" />
      <rect
         width="51.140999"
         height="139.92999"
         ry="3.4191"
         x="332.42001"
         y="-34.157001"
         id="rect3161"
         style="fill:#d7cb00" />
      <rect
         width="51.140999"
         height="139.92999"
         ry="3.4191"
         x="311.82001"
         y="-34.157001"
         id="rect3163"
         style="fill:#f6ea00" />
    </g>
    <path
       d="m 323.21,125.14 20.344,-0.0354 -6.2934,14.037 c -1.1538,2.0178 -5.3764,2.0094 -6.7221,0.0229 z"
       id="path3165"
       style="fill:url(#linearGradient5933)"
       inkscape:connector-curvature="0" />
    <rect
       width="91.216003"
       height="21.385"
       ry="0"
       x="286.32001"
       y="-73.568001"
       id="rect3167"
       style="fill:url(#linearGradient5935)" />
    <path
       d="m 286.41,-73.329 0,-7.1571 c 0,0 8.3335,-7.4893 19.964,-10.422 11.631,-2.9324 38.291,-2.6332 49.723,0 11.432,2.6332 21.094,9.4172 21.094,9.4172 l 0.25113,8.1616 z"
       id="path3169"
       style="fill:url(#linearGradient5937)"
       inkscape:connector-curvature="0" />
  </g>
</svg>
