<?xml version="1.0" encoding="UTF-8" standalone="no"?>
<!-- Created with Inkscape (http://www.inkscape.org/) -->

<svg
   xmlns:dc="http://purl.org/dc/elements/1.1/"
   xmlns:cc="http://creativecommons.org/ns#"
   xmlns:rdf="http://www.w3.org/1999/02/22-rdf-syntax-ns#"
   xmlns:svg="http://www.w3.org/2000/svg"
   xmlns="http://www.w3.org/2000/svg"
   xmlns:xlink="http://www.w3.org/1999/xlink"
   xmlns:sodipodi="http://sodipodi.sourceforge.net/DTD/sodipodi-0.dtd"
   xmlns:inkscape="http://www.inkscape.org/namespaces/inkscape"
   version="1.1"
   width="256"
   height="256"
   id="svg4085"
   inkscape:version="0.48.3.1 r9886"
   sodipodi:docname="Openstreetmap-icon3-hk.svg">
  <sodipodi:namedview
     pagecolor="#ffffff"
     bordercolor="#666666"
     borderopacity="1"
     objecttolerance="10"
     gridtolerance="10"
     guidetolerance="10"
     inkscape:pageopacity="0"
     inkscape:pageshadow="2"
     inkscape:window-width="738"
     inkscape:window-height="480"
     id="namedview11205"
     showgrid="false"
     inkscape:zoom="0.94214547"
     inkscape:cx="126.15697"
     inkscape:cy="127.36887"
     inkscape:window-x="0"
     inkscape:window-y="24"
     inkscape:window-maximized="0"
     inkscape:current-layer="svg4085" />
  <defs
     id="defs4087">
    <linearGradient
       id="linearGradient5217">
      <stop
         id="stop5219"
         style="stop-color:#ffffff;stop-opacity:1"
         offset="0" />
      <stop
         id="stop5227"
         style="stop-color:#ffffff;stop-opacity:1"
         offset="0.82474226" />
      <stop
         id="stop5221"
         style="stop-color:#000000;stop-opacity:0"
         offset="1" />
    </linearGradient>
    <linearGradient
       id="linearGradient4863">
      <stop
         id="stop4865"
         style="stop-color:#00087a;stop-opacity:1"
         offset="0" />
      <stop
         id="stop4875"
         style="stop-color:#28246c;stop-opacity:1"
         offset="0.72368419" />
      <stop
         id="stop4966"
         style="stop-color:#191744;stop-opacity:0.67708331"
         offset="0.8618421" />
      <stop
         id="stop4867"
         style="stop-color:#000000;stop-opacity:0"
         offset="1" />
    </linearGradient>
    <filter
       color-interpolation-filters="sRGB"
       id="filter5134">
      <feGaussianBlur
         id="feGaussianBlur5136"
         stdDeviation="4.2289025" />
    </filter>
    <filter
       x="-0.050928716"
       y="-0.17328185"
       width="1.1018574"
       height="1.3465637"
       color-interpolation-filters="sRGB"
       id="filter5138">
      <feGaussianBlur
         id="feGaussianBlur5140"
         stdDeviation="4.2289025" />
    </filter>
    <filter
       x="-0.14353371"
       y="-0.08514712"
       width="1.2870674"
       height="1.1702942"
       color-interpolation-filters="sRGB"
       id="filter5142">
      <feGaussianBlur
         id="feGaussianBlur5144"
         stdDeviation="4.2289025" />
    </filter>
    <filter
       color-interpolation-filters="sRGB"
       id="filter5188">
      <feGaussianBlur
         id="feGaussianBlur5190"
         stdDeviation="2.5797058" />
    </filter>
    <radialGradient
       cx="316.07144"
       cy="496.29074"
       r="131.78572"
       fx="316.07144"
       fy="496.29074"
       id="radialGradient5269"
       xlink:href="#linearGradient5217"
       gradientUnits="userSpaceOnUse"
       gradientTransform="matrix(1,0,0,0.94579944,0,26.899238)" />
    <mask
       id="mask5265">
      <path
         d="m 447.85716,496.29074 a 131.78572,124.64286 0 1 1 -263.57144,0 131.78572,124.64286 0 1 1 263.57144,0 z"
         transform="translate(2.1428587,2.1428587)"
         id="path5267"
         style="fill:url(#radialGradient5269);fill-opacity:1;stroke:none"
         inkscape:connector-curvature="0" />
    </mask>
    <radialGradient
       cx="319.20819"
       cy="499.80875"
       r="135.36044"
       fx="319.20819"
       fy="499.80875"
       id="radialGradient5273"
       xlink:href="#linearGradient4863"
       gradientUnits="userSpaceOnUse"
       gradientTransform="matrix(1,0,0,0.99253735,0,3.7298958)" />
  </defs>
  <metadata
     id="metadata4090">
    <rdf:RDF>
      <cc:Work
         rdf:about="">
        <dc:format>image/svg+xml</dc:format>
        <dc:type
           rdf:resource="http://purl.org/dc/dcmitype/StillImage" />
        <dc:title />
      </cc:Work>
    </rdf:RDF>
  </metadata>
  <g
     transform="translate(-192.48232,-368.15903)"
     id="layer1">
    <g
       mask="url(#mask5265)"
       id="g5192">
      <path
         d="m 454.56863,499.80875 a 135.36044,134.3503 0 1 1 -270.72088,0 135.36044,134.3503 0 1 1 270.72088,0 z"
         id="path4093"
         style="fill:url(#radialGradient5273);fill-opacity:1;stroke:none"
         inkscape:connector-curvature="0" />
      <path
         d="m 413.54108,389.05961 c -32.65307,30.39309 -57.49322,0.69239 -57.49322,0.69239 0,0 -1.7421,32.41343 0.98994,40.14364 4.42316,11.56917 9.46651,15.83963 20.19743,22.16547 -10.9927,11.02595 -19.04356,17.09474 -16.32857,30.53628 -3.90114,24.49113 20.85963,54.89582 55.76384,54.78875 35.63104,0.43562 58.08517,-23.46411 57.16004,-52.99731 0.61466,-22.90556 -14.60676,-31.68659 -16.85292,-34.71959"
         id="path4879"
         style="fill:none;stroke:#46fd12;stroke-width:6;stroke-linecap:round;stroke-linejoin:round;stroke-miterlimit:4;stroke-opacity:1;stroke-dasharray:none"
         inkscape:connector-curvature="0" />
      <path
         d="m 401.71288,453.26952 c -3.3844,0.1444 -3.07329,4.19163 -1.06442,5.92693 1.66061,3.99485 0.27902,8.62924 0.70155,12.8457 -4.4656,2.07427 -9.77177,1.74581 -14.03108,4.01579 -2.33098,3.21666 3.19028,5.00941 5.66081,4.64477 2.84434,-0.0226 5.51173,-0.87529 8.24931,-1.54825 0.1159,4.55677 0.73346,9.45856 -4.8681,10.6341 -3.97842,2.89559 -9.28242,4.21608 -12.76752,7.60631 -0.99938,3.69762 4.4638,7.04332 7.66872,5.7092 3.18888,-2.8083 6.23625,-5.91637 9.65241,-8.49123 -0.16351,4.43327 0.10901,8.93178 -0.33868,13.32953 -2.20082,0.29684 -7.19444,-2.94348 -7.11231,1.23377 2.04327,3.56077 5.96869,6.02001 7.40261,9.9911 2.21221,3.33795 6.16967,-0.13474 6.48333,-3.07232 2.79682,-8.7095 -0.21832,-18.35774 0.8709,-27.09451 2.05458,-1.87305 7.09518,-3.66806 5.34632,-7.23327 -1.87407,-1.24145 -4.01273,0.27872 -5.63662,1.23377 0.21877,-2.66989 -1.07471,-6.48259 2.70945,-6.43495 1.17511,0.13964 2.46272,-2.57245 2.51592,-0.19353 2.34544,6.19747 1.52154,13.14132 3.91902,19.25646 0.59652,2.29958 4.2003,4.55197 5.37052,1.49987 0.30983,-1.45704 5.14043,-2.31135 3.94322,0.26611 0.26069,9.20818 -0.95745,18.76846 1.137,27.77187 1.73668,3.11421 5.29168,0.36798 5.29795,-2.32239 1.48894,-9.19376 0.44608,-18.53401 0.65317,-27.79606 2.7518,-1.03735 4.31044,0.32767 6.02369,2.17724 3.79677,2.43547 6.03518,-3.30188 6.62848,-6.16884 2.17634,-5.68678 1.73675,-12.68001 6.43494,-17.10341 1.08769,-3.91797 -3.94411,-6.00572 -6.5559,-7.69291 -6.48681,-0.68085 -12.90163,1.82741 -19.4101,2.15525 -4.32427,0.66889 -8.58498,1.73974 -12.76463,0.26391 -2.33525,-0.60057 -1.7131,3.40393 -3.60454,1.91113 -3.71828,0.0793 -0.52119,-4.88153 -1.06443,-7.1365 0.30226,-2.70218 2.12881,-6.43853 -1.25795,-8.03159 -1.89783,-1.002 -3.96055,-2.30638 -6.19304,-2.15305 z m 37.76298,19.54676 c 2.91088,-0.83974 3.07829,2.23561 1.99494,4.10718 -0.99507,3.6597 -1.4423,8.59593 -3.30129,11.42378 -1.84247,-0.75027 -5.50827,1.68418 -4.66896,-1.57245 -1.8445,-5.44432 6.36015,-1.45234 6.91878,-5.85435 -0.40681,-2.80061 -3.83703,-3.88659 -6.31399,-3.41101 0.15492,-1.32802 0.69626,-3.10252 0.14515,-4.2819 1.73611,-0.19516 3.47701,-0.38436 5.22537,-0.41125 z m -14.15205,2.00789 c 1.33199,2.04291 1.99354,5.64228 -1.41312,5.53862 -3.56154,2.53792 -2.91227,-1.65988 -3.48422,-4.07158 -0.77703,-1.76453 4.0805,-1.66213 4.89734,-1.46704 z m -3.36262,10.30559 c 1.78439,1.63332 5.66599,-1.30251 4.47543,2.56431 1.28004,3.6256 -5.56457,3.93548 -4.13433,-0.2193 -0.0305,-0.59602 -0.46525,-2.01194 -0.3411,-2.34501 z"
         id="text4910"
         style="font-size:100px;font-style:normal;font-variant:normal;font-weight:normal;font-stretch:normal;line-height:125%;letter-spacing:0px;word-spacing:0px;fill:#ff4848;fill-opacity:0.85517237;stroke:#f99191;stroke-width:4;stroke-miterlimit:4;stroke-opacity:1;stroke-dasharray:none;font-family:AR PL UKai HK;-inkscape-font-specification:AR PL UKai HK"
         inkscape:connector-curvature="0" />
      <path
         d="m 392.43717,406.05786 c -1.68892,0.0292 -0.91921,2.09838 -1.16058,3.11785 -1.25545,5.11041 -4.96703,9.23115 -8.47819,12.99269 -2.70682,2.75483 -5.96634,5.03229 -8.77327,7.68152 -0.008,1.69937 2.14965,0.89774 3.03853,0.36721 7.30707,-3.35162 12.39459,-9.78628 16.91101,-16.22412 0.75732,-1.98144 1.59535,0.95959 2.42885,1.52187 2.91781,3.50935 5.67699,7.25271 9.04601,10.30249 2.41788,1.12897 5.26333,0.14338 7.83889,0.21638 1.0096,-0.0591 3.5579,-0.15819 2.83262,-1.79989 -1.64948,-1.39011 -4.11378,-1.53183 -5.99237,-2.54908 -5.40235,-1.76274 -9.1018,-6.26783 -13.17701,-9.93217 -0.89557,-0.53961 -0.98403,-0.98909 -0.20654,-1.50483 0.96045,-1.83658 -1.26765,-3.41719 -2.76378,-4.00305 -0.49989,-0.14093 -1.02066,-0.23212 -1.54417,-0.18687 z m 6.27505,15.1565 c -3.56031,0.69239 -6.99006,1.9734 -10.65184,2.31134 -1.25364,-0.003 -1.55557,1.67578 -0.36392,2.09496 1.10446,0.76224 2.69429,0.67756 3.81618,0.73766 -0.15214,0.80295 0.7842,2.55739 -0.1537,2.81164 -1.89185,0.60047 -4.25741,-0.0282 -5.8853,1.21108 -0.69767,1.49754 1.56454,2.12296 2.67526,2.21298 1.23563,0.13645 2.48094,6.4e-4 3.68831,-0.25572 0,2.92115 0,5.84229 0,8.76343 -4.06999,0.52012 -8.24572,0.60215 -12.26486,1.32779 -1.257,1.18187 0.74187,2.66444 1.87858,2.94081 2.54878,0.68246 5.05034,-0.82663 7.62251,-0.90486 6.51661,-0.99774 13.33802,-0.84505 19.80868,-0.61964 1.44617,-0.13242 1.5491,-2.10074 0.38359,-2.72443 -1.75611,-1.55145 -4.16765,-2.29067 -6.45383,-1.48291 -2.5009,0.40598 -5.01054,0.75884 -7.52241,1.08949 0.062,-3.03011 0.16835,-6.0589 0.26556,-9.08799 2.22143,-0.69674 4.79624,-0.73755 6.816,-1.85891 1.1284,-1.42466 -1.10235,-2.70608 -2.37036,-2.61625 -1.46623,0.0413 -2.97751,0.59061 -4.34729,0.88519 -0.014,-0.88457 0.48343,-1.83873 -0.0491,-2.66541 1.92642,-0.71731 4.35625,-0.5585 5.99964,-1.83923 0.93368,-1.63265 -1.70143,-2.51206 -2.89163,-2.33102 z m 3.31457,9.82565 c -1.44275,0.002 -0.56412,1.80552 -1.6327,2.30151 -1.36979,1.73959 -3.69532,2.71264 -4.8489,4.57351 -0.0101,1.64598 2.05238,0.82922 2.92026,0.37007 2.29661,-0.90442 4.5196,-1.98367 6.80705,-2.81911 1.35619,-1.38962 -0.68372,-3.12233 -1.77039,-3.91453 -0.43264,-0.24717 -0.94047,-0.54715 -1.47532,-0.51145 z m -18.12682,2.92115 c -1.47809,0.57664 -0.55864,2.51933 0.37375,3.17687 1.0753,1.44065 4.06413,5.4855 5.55705,2.272 0.4539,-1.7858 -0.41612,-3.66281 -2.18348,-4.28828 -1.18049,-0.52369 -2.41303,-1.21124 -3.74732,-1.16059 z"
         id="text4934"
         style="font-size:100.27317047px;font-style:normal;font-variant:normal;font-weight:normal;font-stretch:normal;line-height:125%;letter-spacing:0px;word-spacing:0px;fill:#da3e3e;fill-opacity:1;stroke:#f99191;stroke-width:1.30999994;stroke-miterlimit:4;stroke-opacity:1;stroke-dasharray:none;font-family:AR PL UKai HK;-inkscape-font-specification:AR PL UKai HK"
         inkscape:connector-curvature="0" />
      <rect
         width="199.28572"
         height="58.57143"
         ry="19.285715"
         x="157.14287"
         y="545.93359"
         id="rect4952"
         style="fill:none;stroke:#e0e800;stroke-width:4.30000019;stroke-linecap:round;stroke-linejoin:round;stroke-miterlimit:4;stroke-opacity:1;stroke-dasharray:none;stroke-dashoffset:0" />
      <g
         id="text4962"
         style="font-size:40px;font-style:normal;font-variant:normal;font-weight:normal;font-stretch:normal;line-height:125%;letter-spacing:0px;word-spacing:0px;fill:#ff9dca;fill-opacity:1;stroke:#f70ace;stroke-width:1.60000002;stroke-miterlimit:4;stroke-opacity:1;font-family:AR PL UKai CN;-inkscape-font-specification:AR PL UKai CN">
        <path
           d="m 227.68413,555.08545 c 1.30206,-0.15622 2.27862,0.33857 2.92969,1.48437 0.18227,0.4167 0.23435,1.02868 0.15625,1.83594 -3e-5,0.65107 0.31247,0.97659 0.9375,0.97656 l 8.39843,0 c 0.62497,3e-5 1.11976,-0.31247 1.48438,-0.9375 0.31247,-0.46872 0.63799,-0.93747 0.97656,-1.40625 0.41663,-0.49476 0.93747,-0.70309 1.5625,-0.625 1.27601,0.0261 2.10934,0.7292 2.5,2.10938 0.0521,0.52086 -0.0782,1.06773 -0.39062,1.64062 -1.17192,2.39586 -2.66931,4.68753 -4.49219,6.875 -0.57295,0.65106 -0.54691,0.97659 0.0781,0.97657 l 4.92188,0 c 1.45829,0.28647 2.05725,1.23699 1.79687,2.85156 -0.4167,0.9896 -0.98962,1.52345 -1.71875,1.60156 l -9.6875,0 c -0.62502,2e-5 -1.06773,0.0912 -1.32812,0.27344 -3.15107,2.3698 -6.96617,4.53126 -11.44531,6.48437 -0.62502,0.26043 -0.93752,0.53387 -0.9375,0.82032 -2e-5,0.28646 0.31248,0.40365 0.9375,0.35156 5.80727,-0.80729 10.96351,-2.16145 15.46875,-4.0625 0.54684,-0.36457 1.10673,-0.5078 1.67968,-0.42969 1.30205,0.26043 2.00518,1.00262 2.10938,2.22656 0.15621,0.96355 -0.28649,1.7448 -1.32813,2.34375 -5.28648,2.39584 -11.28908,3.94532 -18.00781,4.64844 -0.62501,0.0781 -0.85939,0.42969 -0.70312,1.05469 0.15623,0.41667 0.48175,0.78125 0.97656,1.09375 1.69269,0.46875 4.21873,0.74219 7.57812,0.82031 l 2.5,0 c 2.63018,-0.10417 4.81768,-0.35156 6.5625,-0.74219 0.59893,-0.1302 0.93747,-0.54687 1.01563,-1.25 0.26038,-0.98958 0.35153,-2.03124 0.27344,-3.125 0.13017,-1.11978 0.74215,-1.87499 1.83593,-2.26562 0.72913,-0.18229 1.35413,-0.11718 1.875,0.19531 0.70309,0.59897 1.10674,1.26303 1.21094,1.99219 l 0,2.26562 c -0.0521,1.51042 -0.11723,2.69532 -0.19531,3.55469 -0.0782,0.57292 -0.23441,1.09375 -0.46875,1.5625 -0.23441,0.59896 -0.67712,1.10677 -1.32813,1.52344 -1.95316,0.98958 -5.07815,1.53645 -9.375,1.64062 l -1.44531,0.0391 -2.96875,0 c -2.44794,-0.0781 -4.6745,-0.26043 -6.67969,-0.54688 -1.82293,-0.15625 -3.38543,-0.65105 -4.6875,-1.48437 -1.1198,-1.1198 -1.71876,-2.60417 -1.79687,-4.45313 l 0,-4.64844 c -1e-5,-0.62499 -0.31251,-0.84634 -0.9375,-0.66406 l -2.96875,0.85938 c -0.8073,0.3125 -1.54949,0.46875 -2.22656,0.46875 -1.64063,-0.3125 -2.3698,-1.34114 -2.1875,-3.08594 0.31249,-1.09374 1.05468,-1.70572 2.22656,-1.83594 4.94791,-1.22395 9.6354,-2.9427 14.0625,-5.15625 0.2604,-0.15623 0.41665,-0.2604 0.46875,-0.3125 0.026,-0.0521 -2e-5,-0.0911 -0.0781,-0.11719 -0.0781,-0.026 -0.4297,-0.039 -1.05468,-0.0391 l -13.47657,0 c -1.19792,-0.23436 -1.83594,-0.92446 -1.91406,-2.07031 -0.026,-0.54686 0.11719,-1.06769 0.42969,-1.5625 0.41666,-0.54686 0.91145,-0.82029 1.48437,-0.82031 l 12.57813,0 c 0.62498,2e-5 0.93748,-0.31248 0.9375,-0.9375 l 0,-2.26563 c -2e-5,-0.62498 -0.31252,-0.93748 -0.9375,-0.9375 l -9.29688,0 c -1.19792,-0.23435 -1.83594,-0.92445 -1.91406,-2.07031 -0.10417,-0.88539 0.28645,-1.61456 1.17188,-2.1875 0.26041,-0.10414 0.52082,-0.18227 0.78125,-0.23438 l 9.25781,0 c 0.62498,3e-5 0.93748,-0.31247 0.9375,-0.9375 l 0,-1.28906 c 0.10415,-1.06768 0.72915,-1.75778 1.875,-2.07031 m 9.57031,9.72656 c 0.52081,-0.62498 0.4557,-0.93748 -0.19531,-0.9375 l -5.3125,0 c -0.65107,2e-5 -0.97659,0.31252 -0.97656,0.9375 l 0,2.22656 c -3e-5,0.65106 0.31247,0.97659 0.9375,0.97657 l 1.25,0 c 0.62497,2e-5 1.24997,-0.28644 1.875,-0.85938 0.65101,-0.52081 1.4583,-1.30206 2.42187,-2.34375"
           id="path5405"
           style="font-weight:bold;letter-spacing:6.07143116;fill:#ff9dca;stroke:#f70ace;font-family:SVG;-inkscape-font-specification:SVG Bold"
           inkscape:connector-curvature="0" />
        <path
           d="m 288.83368,556.41357 c 0.57289,-1.30205 1.56247,-1.67965 2.96875,-1.13281 0.67705,0.28649 1.06767,0.71618 1.17188,1.28906 0.052,0.49483 -4e-5,1.01566 -0.15625,1.5625 -0.23441,1.17191 -0.75525,2.63024 -1.5625,4.375 -0.23441,0.62503 -0.0391,0.93753 0.58594,0.9375 1.04162,-0.0781 1.82287,3e-5 2.34375,0.23438 0.57287,0.31252 0.92443,0.78127 1.05468,1.40625 0.13017,0.57294 0.0651,1.13283 -0.19531,1.67969 -0.39066,0.72918 -0.93754,1.11981 -1.64062,1.17187 l -1.25,0 c -0.65108,2e-5 -0.9766,0.31252 -0.97657,0.9375 l 0,4.72656 c -3e-5,0.65106 0.31247,0.97658 0.9375,0.97657 l 1.75782,0 c 1.45829,0.28647 2.08329,1.15886 1.875,2.61718 -0.13025,0.93751 -0.70317,1.53647 -1.71875,1.79688 l -1.875,0.0391 c -0.65108,10e-6 -0.9766,0.31251 -0.97657,0.9375 l 0,11.71875 c -0.23441,1.35416 -1.01566,2.08333 -2.34375,2.1875 -1.27607,-0.026 -2.03128,-0.76823 -2.26562,-2.22656 l 0,-11.67969 c -3e-5,-0.62499 -0.31253,-0.93749 -0.9375,-0.9375 l -2.14844,0 c -0.62503,10e-6 -1.00263,0.31251 -1.13281,0.9375 -0.52086,3.6198 -1.44534,6.69271 -2.77344,9.21875 -0.44273,0.98958 -1.09377,2.03125 -1.95312,3.125 -1.01565,1.24999 -2.09638,1.57552 -3.24219,0.97656 -0.59898,-0.44271 -1.22398,-0.625 -1.875,-0.54687 -0.85939,0.026 -1.51043,-0.40365 -1.95313,-1.28906 -0.1823,-0.52084 -0.58595,-0.70313 -1.21093,-0.54688 -3.07293,0.72916 -6.14585,1.49739 -9.21875,2.30469 -0.4948,0.15624 -1.01563,0.16926 -1.5625,0.0391 -0.59897,-0.15625 -1.04167,-0.5599 -1.32813,-1.21094 -0.23438,-0.49479 -0.3125,-1.01563 -0.23437,-1.5625 0.18229,-0.78125 0.6901,-1.3151 1.52343,-1.60156 0.625,-0.20833 0.9375,-0.625 0.9375,-1.25 l 0,-19.64844 c 0.0781,-0.54685 0.27344,-1.06768 0.58594,-1.5625 0.46875,-0.54685 0.97656,-0.91143 1.52344,-1.09375 0.46874,-0.20831 1.11978,-0.27341 1.95312,-0.19531 0.62499,2e-5 0.93749,-0.31248 0.9375,-0.9375 l 0,-1.25 c 0.0521,-0.59893 0.36458,-1.09372 0.9375,-1.48437 1.11978,-0.65102 2.17447,-0.46873 3.16407,0.54687 0.36457,0.57294 0.49477,1.28909 0.39062,2.14844 -1e-5,0.65106 0.31249,0.97658 0.9375,0.97656 0.5729,-0.0521 1.18488,0.0651 1.83594,0.35156 1.14581,0.67711 1.78383,1.58857 1.91406,2.73438 l 0,6.40625 c -2e-5,0.65105 0.10415,0.83334 0.3125,0.54687 0.2604,-0.28644 0.66404,-0.48175 1.21094,-0.58593 l 2.03125,0 c 0.62498,10e-6 0.93748,-0.31249 0.9375,-0.9375 l 0,-4.76563 c -2e-5,-0.62498 -0.31252,-0.93748 -0.9375,-0.9375 -0.75523,0.0261 -1.26304,-0.013 -1.52344,-0.11719 -1.27606,-0.46873 -1.75783,-1.41925 -1.44531,-2.85156 0.13019,-0.57289 0.53383,-1.02862 1.21094,-1.36719 0.3906,-0.15622 1.13279,-0.20831 2.22656,-0.15625 0.62498,3e-5 0.78122,-0.32549 0.46875,-0.97656 -0.44273,-0.98956 -1.11982,-2.22653 -2.03125,-3.71094 -0.80731,-1.19788 -0.62502,-2.25257 0.54687,-3.16406 0.96352,-0.67705 1.87498,-0.5859 2.73438,0.27344 0.83331,0.80732 1.78383,2.36982 2.85156,4.6875 0.33851,0.59898 0.48174,1.22398 0.42969,1.875 -0.15628,0.67711 0.0521,1.01565 0.625,1.01562 l 1.5625,0 c 0.62497,3e-5 1.10674,-0.31247 1.44531,-0.9375 1.1458,-2.18747 1.99216,-4.21872 2.53906,-6.09375 m -23.98437,-0.66406 c 0.96353,-0.80726 2.0703,-0.8333 3.32031,-0.0781 1.8229,1.43232 3.64582,2.83857 5.46875,4.21875 1.14581,0.8594 1.43227,1.84898 0.85938,2.96875 -0.52086,1.14585 -1.32815,1.60158 -2.42188,1.36718 -0.49481,-0.0781 -1.02866,-0.44268 -1.60156,-1.09375 l -2.34375,-2.1875 c -0.80731,-1.01559 -1.58855,-1.19789 -2.34375,-0.54687 -1.38022,1.69273 -3.08595,3.39846 -5.11719,5.11719 -1.14584,0.88543 -2.1875,0.84637 -3.125,-0.11719 -1.22396,-1.40623 -1.02865,-2.64321 0.58594,-3.71094 1.92708,-1.38018 3.6328,-2.83851 5.11719,-4.375 0.49478,-0.59893 1.02863,-1.11976 1.60156,-1.5625 m 21.71875,13.16406 c -3e-5,-0.65102 -0.29951,-0.97654 -0.89844,-0.97656 l -1.95312,0 c -0.65107,2e-5 -0.97659,0.31252 -0.97657,0.9375 l 0,4.72656 c -2e-5,0.65106 0.31248,0.97658 0.9375,0.97657 l 1.95313,0 c 0.62497,1e-5 0.93747,-0.31249 0.9375,-0.9375 l 0,-4.72657 m -20.89844,0.50782 c -0.59897,1e-5 -0.96355,0.013 -1.09375,0.0391 -0.46876,0.28647 -0.67709,0.71616 -0.625,1.28906 -1e-5,0.49481 0.31249,0.7422 0.9375,0.74219 l 3.32031,0 c 0.62499,10e-6 0.93749,-0.22134 0.9375,-0.66406 0.0781,-0.4427 -0.0651,-0.83332 -0.42968,-1.17188 -0.31252,-0.15623 -0.76825,-0.23436 -1.36719,-0.23437 l -1.67969,0 m 3.51563,7.14843 c -0.0261,-0.49478 -0.33856,-0.74217 -0.9375,-0.74218 l -3.32032,0 c -0.65105,1e-5 -0.97657,0.36459 -0.97656,1.09375 -1e-5,0.75521 0.31249,1.13282 0.9375,1.13281 l 3.20313,0 c 0.80727,-0.18228 1.17186,-0.67707 1.09375,-1.48438 m 4.6875,1.83594 c -0.15627,-0.23436 -0.2344,-0.039 -0.23438,0.58594 -0.10418,0.96355 -0.53387,1.78386 -1.28906,2.46094 -0.59898,0.44271 -0.69012,0.98958 -0.27344,1.64062 0.54686,1.1198 1.17186,2.65625 1.875,4.60938 0.23436,0.625 0.55988,0.625 0.97656,0 1.5104,-2.42188 2.47394,-4.98698 2.89063,-7.69532 0.0781,-0.65103 -0.18232,-0.97655 -0.78125,-0.97656 -1.11981,0.0521 -1.94013,-0.013 -2.46094,-0.19531 -0.26044,-0.1302 -0.49481,-0.27343 -0.70312,-0.42969 m -5.78125,4.49219 c 0.20832,-0.33854 -2e-5,-0.50781 -0.625,-0.50781 l -2.53907,0 c -0.65105,0 -0.97657,0.3125 -0.97656,0.9375 l 0,3.24218 c -1e-5,0.625 0.31249,0.8724 0.9375,0.74219 l 2.96875,-0.70312 c 0.62499,-0.18229 0.80728,-0.58594 0.54688,-1.21094 -0.41668,-1.17187 -0.52085,-2.00521 -0.3125,-2.5"
           id="path5407"
           style="font-weight:bold;letter-spacing:6.07143116;fill:#ff9dca;stroke:#f70ace;font-family:SVG;-inkscape-font-specification:SVG Bold"
           inkscape:connector-curvature="0" />
        <path
           d="m 320.84261,555.12451 c 0.52082,-0.15622 1.05467,-0.11715 1.60157,0.11719 0.96352,0.49482 1.40622,1.23701 1.32812,2.22656 -2e-5,0.65107 0.31248,0.97659 0.9375,0.97656 l 12.46094,0 c 1.17184,0.15628 2.12236,0.83336 2.85156,2.03125 0.23434,0.5469 0.28642,1.3542 0.15625,2.42188 -0.0782,1.58856 -0.65108,3.41148 -1.71875,5.46875 -0.83337,1.11981 -1.79691,1.40627 -2.89062,0.85937 -1.5365,-0.80727 -1.78389,-2.01821 -0.74219,-3.63281 0.46871,-0.88539 0.65101,-1.53643 0.54687,-1.95312 -0.28649,-0.62498 -0.87243,-0.85935 -1.75781,-0.70313 l -24.84375,0 c -0.28646,0.0261 -0.54688,0.18232 -0.78125,0.46875 -0.13021,0.28648 -0.19532,0.72919 -0.19531,1.32813 l 0,2.46093 c -0.0781,1.40627 -0.88542,2.13544 -2.42188,2.1875 -1.19792,-0.15623 -1.88802,-0.87237 -2.07031,-2.14843 l 0,-5.78125 c 0.20833,-1.53643 1.21094,-2.53904 3.00781,-3.00782 l 11.91407,0 c 0.62498,3e-5 0.93748,-0.31247 0.9375,-0.9375 -0.10419,-1.17184 0.45571,-1.96611 1.67968,-2.38281 m -12.5,11.09375 c 0.0521,-0.91144 0.67708,-1.54946 1.875,-1.91406 l 21.48438,0 c 1.53642,0.33856 2.1484,1.26304 1.83594,2.77344 -0.31254,0.93752 -0.88545,1.45835 -1.71875,1.5625 l -7.14844,0 c -0.62502,10e-6 -1.00263,0.0521 -1.13281,0.15625 -0.18232,0.13022 -0.0521,0.49481 0.39062,1.09375 0.98956,1.77085 1.79685,3.29428 2.42188,4.57031 0.31247,0.62501 0.63799,0.62501 0.97656,0 0.33851,-0.39061 0.71612,-0.70311 1.13281,-0.9375 1.24997,-0.80728 2.29164,-1.54947 3.125,-2.22656 0.67705,-0.5729 1.19789,-0.96353 1.5625,-1.17188 1.04163,-0.49477 1.99215,-0.19529 2.85156,0.89844 0.44268,0.80731 0.41663,1.54949 -0.0781,2.22656 -1.25004,1.51043 -2.95576,2.87762 -5.11719,4.10156 -0.49482,0.41668 -1.04169,0.62501 -1.64062,0.625 -0.62503,-0.0521 -0.71618,0.24741 -0.27344,0.89844 2.78643,3.85417 6.35413,7.04427 10.70312,9.57031 1.11976,0.88542 1.40621,1.90104 0.85938,3.04688 -0.83337,1.32812 -1.88806,1.73176 -3.16406,1.21094 -2.86462,-1.53647 -5.87243,-4.12761 -9.02344,-7.77344 -0.57294,-0.625 -0.88544,-0.625 -0.9375,0 -0.18232,1.27604 -0.35159,2.27864 -0.50781,3.00781 -0.2344,1.06771 -0.61201,2.10937 -1.13282,3.125 -0.59898,0.98958 -1.57554,1.71875 -2.92968,2.1875 -2.13544,0.57291 -4.77867,0.40364 -7.92969,-0.50781 -0.49481,-0.15626 -1.01564,-0.41667 -1.5625,-0.78125 -0.72918,-0.65105 -0.91147,-1.53646 -0.54688,-2.65625 0.39062,-0.625 0.27343,-0.82032 -0.35156,-0.58594 -2.23959,0.98958 -4.20574,1.67969 -5.89844,2.07031 -0.80729,0.20833 -1.51042,0.28646 -2.10937,0.23438 -0.4948,-0.0521 -0.8724,-0.27344 -1.13281,-0.66406 -0.36459,-0.44271 -0.5599,-0.96355 -0.58594,-1.5625 -0.0521,-1.06771 0.54687,-1.79688 1.79687,-2.1875 6.24999,-1.58854 11.92707,-4.4401 17.03125,-8.55469 0.59894,-0.54687 0.83332,-1.01562 0.70313,-1.40625 -0.13023,-0.39062 -0.50783,-0.35155 -1.13281,0.11719 -3.90627,2.91667 -8.02085,5.14323 -12.34375,6.67968 -1.35418,0.4948 -2.55209,0.66407 -3.59375,0.50782 -0.31251,-0.0521 -0.67709,-0.33854 -1.09375,-0.85938 -0.31251,-0.49479 -0.44271,-1.08072 -0.39063,-1.75781 0.18229,-0.91145 0.78125,-1.51041 1.79688,-1.79688 5.02603,-1.30207 9.54425,-3.48957 13.55468,-6.5625 0.65103,-0.52081 0.91144,-0.8854 0.78125,-1.09375 -0.15626,-0.20831 -0.55991,-0.11717 -1.21093,0.27344 -2.96877,1.84897 -6.06772,3.29428 -9.29688,4.33594 -1.56251,0.4948 -2.85157,0.67709 -3.86719,0.54687 -0.46875,-0.0781 -0.84635,-0.29947 -1.13281,-0.66406 -0.59896,-0.7552 -0.71615,-1.53644 -0.35156,-2.34375 0.33854,-0.67707 0.78124,-1.09373 1.32812,-1.25 3.30729,-0.5729 6.61458,-1.70571 9.92188,-3.39844 0.65103,-0.36456 0.97655,-0.57289 0.97656,-0.625 -0.0521,-0.0521 -0.39064,-0.0911 -1.01562,-0.11718 l -0.23438,0 -4.64844,0 c -1.35417,-0.2604 -1.97917,-1.06769 -1.875,-2.42188 m 14.60938,17.22656 c -2e-5,-0.67708 -0.31252,-0.78124 -0.9375,-0.3125 -1.87502,1.40626 -3.89325,2.6823 -6.05469,3.82813 -0.8073,0.44271 -0.85939,0.72916 -0.15625,0.85937 1.64061,0.36459 3.138,0.52084 4.49219,0.46875 0.98956,-0.18229 1.66664,-0.71614 2.03125,-1.60156 0.36456,-0.98958 0.57289,-2.07031 0.625,-3.24219"
           id="path5409"
           style="font-weight:bold;letter-spacing:6.07143116;fill:#ff9dca;stroke:#f70ace;font-family:SVG;-inkscape-font-specification:SVG Bold"
           inkscape:connector-curvature="0" />
      </g>
      <path
         d="m 269.79483,372.31415 3.03046,105.05586 67.68022,0 -4.04061,-119.198"
         id="path4877"
         style="fill:none;stroke:#05d0ff;stroke-width:5;stroke-linecap:butt;stroke-linejoin:miter;stroke-miterlimit:4;stroke-opacity:1;stroke-dasharray:none"
         inkscape:connector-curvature="0" />
      <g
         id="text4938"
         style="font-size:45.1837616px;font-style:normal;font-variant:normal;font-weight:100;font-stretch:normal;line-height:125%;letter-spacing:0px;word-spacing:0px;fill:#ebf232;fill-opacity:1;stroke:#ffffd8;stroke-width:1.29999995;stroke-miterlimit:4;stroke-opacity:1;font-family:SVG;-inkscape-font-specification:SVG">
        <path
           d="m 326.7625,400.26672 -0.26475,1.36786 -0.79424,1.059 -1.36787,1.10312 -1.36787,0.52949 -1.36787,0.26475 -5.38322,0 -0.57362,-0.52949 0,-4.32423 0.57362,-0.26475 3.48586,0 0.57362,-0.30887 0.26475,-0.26475 0.26475,-0.79425 0,-7.05996 -0.5295,-0.5295 -4.89785,0 -0.26475,-0.26475 0,-15.17892 0.26475,-0.57362 4.89785,0 0.26475,-0.52949 0.26475,-0.5295 0,-4.36835 -0.5295,-0.26475 -4.6331,0 -0.5295,-0.5295 0,-0.79425 -0.52949,0 -0.57363,3.22111 -0.26474,0.83837 -0.5295,0.79425 -0.79425,0.57362 -0.57362,0.26475 -1.63262,0 -0.26474,-0.57362 0,-4.05948 0.26474,-0.26475 0.30888,-0.79425 0,-3.52998 0.5295,-0.26475 15.44366,0 0.26475,0.26475 0,11.91369 -0.26475,1.36787 -0.52949,0.79424 -1.10312,0.83837 -1.36787,0.79425 -2.69161,0 -0.26475,0.26475 0,5.42735 0.26475,0.26474 5.69209,0 0.26475,0.26475 0,14.38468 m -12.17843,2.69161 -0.57363,0.57362 -1.58849,0 -0.83837,-0.57362 -1.05899,-0.79425 -0.30888,-0.79424 -0.26474,-4.63311 -0.26475,-5.16259 -0.26475,0 0,12.48731 -0.5295,0.52949 -5.1626,0 -0.26474,-0.52949 0,-6.2216 0,-6.26571 -0.26475,0 -0.57362,4.1036 -0.5295,4.32423 -0.26475,1.36787 -0.5295,0.79424 -0.83837,0.79425 -0.79424,0.57362 -1.63262,0 -0.26475,-0.57362 0,-2.95636 -0.26475,0 -0.57362,1.63261 -0.79425,1.32375 -0.83837,1.10312 -1.05899,0.52949 -7.05996,0 -0.26475,-0.26475 0,-4.58897 0.26475,-0.26475 3.52998,0 0.5295,-0.30887 0.57362,-0.26475 0,-7.58946 -0.30888,-0.26475 -5.38322,0 -0.30887,-0.5295 0,-15.44367 0.30887,-0.57362 5.6921,0 0.26475,-0.52949 0,-4.58898 -0.26475,-0.57362 -5.6921,0 -0.30887,-0.26475 0,-4.58898 0.30887,-0.26475 7.28059,0 7.63358,0 0,0.26475 0.5295,2.95636 0.26475,0.83837 0.5295,0.79425 0.26475,0.26475 0,3.79473 -0.5295,0.57362 -1.36787,0 -0.79425,-0.57362 -0.83837,-0.5295 -0.52949,-0.79425 0,-0.83837 -0.5295,0 0,6.26572 -0.5295,1.059 -0.57362,0.52949 -1.05899,0.83837 -1.10312,0.5295 -2.42687,0 -0.26474,0.5295 0,5.42734 0.26474,0.26475 4.85373,0 0.30887,0.57362 0,11.64894 0,1.89737 0.26475,0 0,-2.16212 0.26475,0 0.5295,-0.57362 0.52949,-7.85421 0.57363,-7.58946 0.52949,-0.52949 2.73574,0 0.26475,-0.26475 0,-1.10312 -0.26475,-0.26475 -3.83886,0 -0.26474,-0.26475 0,-4.32423 0.26474,-0.57362 4.10361,0 0.26475,-0.26475 0,-10.28107 0.26474,-0.26475 5.1626,0 0.5295,0.26475 0,10.28107 0.26475,0.26475 3.79473,0 0.26475,0.57362 0,4.32423 -0.26475,0.26475 -4.05948,0 -0.26475,0.26475 0,1.10312 0.26475,0.26475 3.26523,0 0.26475,0.52949 0.5295,8.16309 0.26475,8.11895 0.26474,0.5295 0.57363,0.26475 0,4.05948"
           id="path5412"
           inkscape:connector-curvature="0" />
        <path
           d="m 327.02725,437.50802 -0.5295,0.5295 -3.26523,0 -1.32374,-0.26475 -1.10312,-0.5295 -0.5295,-1.10312 -0.57362,-3.26523 -0.5295,-4.85373 0,-3.52998 -0.52949,-0.26475 -5.1626,0 -4.58898,0 -0.57362,-0.26474 0,-4.6331 0.57362,-0.26475 15.44367,0 0.26475,0.52949 0.5295,7.32472 0.57362,5.42734 0.26475,0.83837 0.52949,0 0.5295,0.26475 0,4.05948 m -20.03264,-15.75254 -0.26475,3.00048 -0.57362,1.89737 -0.26475,0.79424 -1.059,1.10312 -0.83837,0.5295 -3.52998,0 -0.26475,-0.5295 0,-3.79473 0.83837,-0.5295 0.26475,-0.57362 0.26475,-1.89736 0,-2.16212 0.5295,-0.52949 4.6331,0 0.26475,0.52949 0,2.16212 m 18.97365,33.62307 -0.26475,1.63262 -0.57362,1.10312 -0.79425,1.05899 -1.36787,0.83837 -4.85372,0 -0.57362,-0.26475 0,-4.36835 0.57362,-0.5295 1.32374,0 0.26475,-0.52949 0,-8.95733 -0.26475,-0.26475 -4.32423,0 -0.52949,0.26475 0,4.32423 -0.57363,4.6331 -0.26474,1.89736 -0.79425,1.32374 -0.83837,1.36787 -1.05899,0.83837 -0.83838,0.26475 -7.58945,0 -1.32375,-0.83837 -0.57362,-1.05899 -0.5295,-1.63262 -0.26475,-1.63262 -0.26474,-3.79473 0,-5.95684 -0.26475,-3.79473 -0.83837,0 0,18.44415 -0.26475,0.26475 -4.89785,0 -0.5295,-0.26475 0,-9.22207 0,-9.22208 -0.5295,0 -0.26474,10.28107 0,2.73574 -0.26475,2.42686 -0.57362,1.36787 -0.79425,1.05899 -1.10312,0.83837 -3.22111,0 -0.30887,-0.26475 0,-4.6331 0.30887,-0.5295 0.5295,-0.26474 0.5295,-2.47099 0,-3.22111 0.52949,-3.26523 0,-4.05948 0.30888,-3.52998 0.26475,-0.26475 4.05947,0 0.26475,-0.26475 0,-0.83837 -0.26475,-0.26475 -5.95684,0 -0.26475,-0.26475 0,-4.58897 0.26475,-0.30888 6.22159,0 0.26475,-0.52949 0,-11.11944 0.5295,-0.26475 5.42735,0 0.26474,0.26475 0,11.11944 0.57363,0.52949 7.05996,0 0.26475,0.30888 0,1.32374 1.05899,0 0.26475,-0.5295 0.57362,-2.16211 0.26475,-2.73574 0,-1.63261 0.26475,-0.26475 5.1626,0 0.52949,0.26475 0,4.1036 -0.52949,3.22111 -0.26475,1.89736 -0.57362,1.36787 -0.79425,0.83837 -1.10312,0.79425 -1.63262,0.26475 -3.48585,0 -0.30888,-0.26475 0,-1.36787 -6.48634,0 -0.26474,0.26475 0,0.57362 0.26474,0.26475 4.32423,0 0.57362,0.5295 0,5.95684 0.5295,10.3252 0.5295,0.52949 1.89736,0 0.5295,-0.52949 0.57362,-7.32472 0,-1.63261 -0.57362,-0.26475 -1.58849,0 -0.57362,-0.5295 0,-4.1036 0.57362,-0.5295 18.97365,0 0.26475,0.26475 0,15.17892 m -33.88782,-26.56311 -0.26475,0.26475 -3.26524,0 -0.83837,-0.5295 -0.79424,-1.10312 -0.26475,-1.58849 -0.5295,-6.53046 0.5295,-0.26475 4.32423,0 0.26475,0.26475 0.26474,4.6331 0.57363,1.05899 0,3.79473"
           id="path5414"
           inkscape:connector-curvature="0" />
      </g>
      <path
         d="m 413.32989,390.25827 c -32.65307,30.39309 -57.49322,0.69239 -57.49322,0.69239 0,0 -1.7421,32.41343 0.98994,40.14364 4.42316,11.56917 9.46651,15.83963 20.19743,22.16547 -10.9927,11.02595 -19.04356,17.09474 -16.32857,30.53628 -3.90114,24.49113 20.85963,54.89582 55.76384,54.78875 35.63104,0.43562 58.08517,-23.46411 57.16004,-52.99731 0.61466,-22.90556 -14.60676,-31.68659 -16.85292,-34.71959"
         id="path4879-1"
         style="opacity:0.6419214;fill:none;stroke:#46fd12;stroke-width:12;stroke-linecap:round;stroke-linejoin:round;stroke-miterlimit:4;stroke-opacity:1;stroke-dasharray:none;filter:url(#filter5134)"
         inkscape:connector-curvature="0" />
      <rect
         width="199.28572"
         height="58.57143"
         ry="19.285715"
         x="156.93169"
         y="547.1322"
         id="rect4952-3"
         style="opacity:0.6419214;fill:none;stroke:#e0e800;stroke-width:8.60000038;stroke-linecap:round;stroke-linejoin:round;stroke-miterlimit:4;stroke-opacity:1;stroke-dasharray:none;stroke-dashoffset:0;filter:url(#filter5138)" />
      <path
         d="m 269.58364,373.51281 3.03046,105.05586 67.68022,0 -4.04061,-119.198"
         id="path4877-5"
         style="opacity:0.6419214;fill:none;stroke:#05d0ff;stroke-width:10;stroke-linecap:butt;stroke-linejoin:miter;stroke-miterlimit:4;stroke-opacity:1;stroke-dasharray:none;filter:url(#filter5142)"
         inkscape:connector-curvature="0" />
      <rect
         width="142.85715"
         height="75.714287"
         ry="0"
         x="187.14285"
         y="461.11218"
         id="rect4968-9"
         style="fill:#fef346;fill-opacity:1;stroke:none;filter:url(#filter5188)" />
      <rect
         width="142.85715"
         height="75.714287"
         ry="0"
         x="184.10715"
         y="459.86215"
         id="rect4968"
         style="fill:#fef346;fill-opacity:1;stroke:none" />
      <g
         transform="translate(22.678572,24.642857)"
         id="g5068">
        <path
           d="m 175,447.36218 c 30.57529,1.58385 83.7386,-4.01478 100.86417,6.95225 8.28669,4.61238 11.85658,15.95908 10.93871,25.58386 -0.41857,7.43854 -4.99177,16.15144 -13.23128,16.749"
           id="path4972"
           style="fill:none;stroke:#ad3131;stroke-width:4;stroke-linecap:butt;stroke-linejoin:miter;stroke-miterlimit:4;stroke-opacity:1;stroke-dasharray:none"
           inkscape:connector-curvature="0" />
        <path
           d="m 175,456.6479 c 31.04128,-1.24385 61.92459,-1.40644 91.42823,0.002"
           id="path4974"
           style="fill:none;stroke:#ad3131;stroke-width:4;stroke-linecap:butt;stroke-linejoin:miter;stroke-miterlimit:4;stroke-opacity:1;stroke-dasharray:none"
           inkscape:connector-curvature="0" />
        <g
           id="text5064"
           style="font-size:40px;font-style:normal;font-variant:normal;font-weight:normal;font-stretch:normal;line-height:125%;letter-spacing:0px;word-spacing:0px;fill:#ad3131;fill-opacity:1;stroke:none;font-family:Font2;-inkscape-font-specification:Font2">
          <path
             d="m 187.26004,492.2171 c -0.59899,-0.0781 -1.1719,-0.22135 -1.71875,-0.42969 -0.5469,-0.20833 -1.02867,-0.54687 -1.44531,-1.01562 -1.09378,-1.71875 -1.96617,-3.5026 -2.61719,-5.35156 -0.65107,-1.84895 -1.60158,-3.59374 -2.85156,-5.23438 l 0.42969,-0.11719 1.83593,1.21094 0,0.23438 1.44532,1.13281 c 0.62497,0.8073 1.13278,1.64063 1.52343,2.5 0.41664,0.85938 0.87237,1.73178 1.36719,2.61719 1.09372,0.28646 2.13539,0.63802 3.125,1.05468 0.98955,0.39063 1.90101,1.06772 2.73438,2.03125 l 0.19531,1.05469 -1.01563,0.0781 c -0.28649,-0.13021 -0.57295,-0.20833 -0.85937,-0.23438 -0.26045,-0.0521 -0.55993,-0.0781 -0.89844,-0.0781 -0.13024,0.20833 -0.29951,0.36458 -0.50781,0.46875 -0.20837,0.10416 -0.45576,0.13021 -0.74219,0.0781 m -19.84375,-2.26562 0,-0.11719 c 1.64061,-1.71875 3.0729,-3.58072 4.29688,-5.58594 1.24998,-2.03124 1.94008,-4.24478 2.07031,-6.64062 l -0.27344,0 c -1.17189,0.59897 -2.40887,1.02866 -3.71094,1.28906 -1.30209,0.23439 -2.57813,0.52085 -3.82812,0.85937 l -1.83594,-1.01562 -0.11719,-0.50781 c 1.84895,-0.41665 3.64583,-0.96353 5.39063,-1.64063 1.77082,-0.70311 3.47654,-1.56248 5.11719,-2.57812 0.0781,-1.5104 0.19529,-3.00779 0.35156,-4.49219 0.18227,-1.48435 0.23435,-2.96872 0.15625,-4.45313 l -0.50781,-1.875 -1.01563,-0.3125 -0.11719,-0.3125 0.3125,-0.50781 0.39063,-0.0781 2.5,1.13281 c 0.33852,0.80732 0.50779,1.69274 0.50781,2.65625 -2e-5,0.96357 -2e-5,1.92711 0,2.89062 l -0.42969,3.78907 0.3125,0 2.14844,-1.01563 c 0.7031,0.13023 1.39321,0.27346 2.07031,0.42969 0.67706,0.13023 1.28904,0.3646 1.83594,0.70312 l 0.3125,0.3125 0.23438,0.89844 c -0.0782,0.20835 -0.22139,0.33856 -0.42969,0.39063 -0.20836,0.0261 -0.41669,0.0391 -0.625,0.0391 l -3.08594,-0.82031 -1.21094,0.70312 c -1.17189,1.58856 -1.97918,3.30731 -2.42187,5.15625 -0.44273,1.84897 -1.18492,3.59376 -2.22656,5.23438 l -0.19532,0 c -0.46876,0.62501 -0.75522,1.30209 -0.85937,2.03125 -0.10418,0.70313 -0.3646,1.36719 -0.78125,1.99218 l -0.82031,0.19532 0,-0.19532 -0.42969,0 -1.44531,0.70313 0.23437,-0.50781 -0.625,0 -1.25,1.25"
             id="path5398"
             style="fill:#ad3131;font-family:Font2;-inkscape-font-specification:Font2"
             inkscape:connector-curvature="0" />
          <path
             d="m 224.68192,494.24835 0.35156,-0.50781 0.19531,0 0,-0.15625 0.15625,0 0,-0.23438 0.15625,0 0.27344,-0.54687 0.15625,0 c 0.23434,-0.36458 0.46872,-0.74219 0.70312,-1.13281 0.26039,-0.41667 0.36456,-0.92448 0.3125,-1.52344 l -0.42968,-1.13281 0.27343,-0.0781 0,-0.19531 -0.35156,-0.19531 c -0.33857,0.20833 -0.66409,0.37761 -0.97656,0.50781 -0.31253,0.10417 -0.66409,0.15625 -1.05469,0.15625 l -0.82031,-0.54688 -0.11719,-0.3125 c 0.0781,-0.10416 0.1432,-0.20832 0.19531,-0.3125 0.0781,-0.10416 0.18227,-0.1953 0.3125,-0.27343 0.83331,-0.3125 1.66664,-0.57291 2.5,-0.78125 0.83331,-0.23437 1.73174,-0.35156 2.69532,-0.35157 l 0.97656,0.58594 0.0781,0.66406 -0.46875,0.19532 -1.44531,-0.19532 c -0.28649,0.0781 -0.59899,0.15626 -0.9375,0.23438 -0.33857,0.0521 -0.57295,0.23438 -0.70312,0.54687 0.41663,0.0521 0.76819,0.19532 1.05468,0.42969 0.31247,0.20834 0.61195,0.40365 0.89844,0.58594 l 0.15625,2.26562 c -0.0261,0.28646 -0.0651,0.5599 -0.11719,0.82032 -0.0521,0.26041 -0.22138,0.42968 -0.50781,0.50781 l -0.54687,0.0781 -0.42969,-0.19531 -0.39063,0.11719 -0.27343,-0.11719 c -0.28649,0.28646 -0.59899,0.46875 -0.9375,0.54688 -0.33857,0.0781 -0.65107,0.26041 -0.9375,0.54687 m -14.29688,-3.98437 c -0.28647,-0.10417 -0.55991,-0.28646 -0.82031,-0.54688 -0.23439,-0.26041 -0.44272,-0.54687 -0.625,-0.85937 l -0.39063,-1.99219 0.0781,0 0.15625,-6.28906 -0.23438,-5.15625 0.3125,-2.57813 -0.15625,0 -0.42968,0.23438 c -2e-5,0.23439 -0.0781,0.41668 -0.23438,0.54687 -0.13022,0.13023 -0.19532,0.32554 -0.19531,0.58594 -0.59897,0.44273 -1.23699,0.85939 -1.91406,1.25 -0.65105,0.3646 -1.39324,0.48179 -2.22657,0.35156 l -1.91406,-1.05469 0,-0.46875 c 1.17187,-0.62498 2.34374,-1.22393 3.51563,-1.79687 1.1979,-0.5729 2.40884,-1.10675 3.63281,-1.60156 l 0,-0.78125 c -0.15626,-0.96352 -0.26043,-1.92706 -0.3125,-2.89063 -0.0521,-0.98955 -0.24741,-1.91403 -0.58594,-2.77344 l 0.58594,-0.11718 0.85937,0.35156 c 0.54686,0.78128 0.8203,1.67971 0.82032,2.69531 -2e-5,1.01565 0.0651,1.99221 0.19531,2.92969 0.49478,-0.0521 0.93748,-0.013 1.32812,0.11719 0.39061,0.10419 0.79426,0.2995 1.21094,0.58593 l 0.23438,0.625 c -0.15627,0.18232 -0.32554,0.32555 -0.50782,0.42969 -0.1823,0.10419 -0.37762,0.13023 -0.58593,0.0781 l -1.21094,-0.23438 -0.42969,0.39063 c -0.026,0.65106 -0.0651,1.27606 -0.11719,1.875 -0.026,0.59897 -0.13022,1.17189 -0.3125,1.71875 l 0.11719,0.70312 -0.11719,0.9375 c -1e-5,1.22397 0.0911,2.40887 0.27344,3.55469 0.18228,1.1198 0.23436,2.31772 0.15625,3.59375 l -0.0391,3.59375 0.23437,1.60156 -0.35156,0.39063 m 7.22656,-2.07032 -1.71875,-1.79687 0.19532,-0.46875 c 2.08331,-0.46874 4.15362,-1.0677 6.21093,-1.79688 2.05727,-0.72915 4.16664,-1.18488 6.32813,-1.36718 l 1.17187,0.11718 0.3125,-0.11718 0.0781,-0.3125 0.9375,-0.0781 1.52344,0.85938 0.27343,1.05468 -0.58593,0.19532 c -0.36462,-0.1302 -0.71619,-0.26041 -1.05469,-0.39063 -0.31254,-0.1302 -0.65108,-0.22134 -1.01563,-0.27344 -2.08336,0.0521 -4.11461,0.33856 -6.09375,0.85938 -1.95315,0.4948 -3.8021,1.30209 -5.54687,2.42187 l -0.42969,0.89844 -0.58594,0.19531 m -14.64843,-1.91406 0,-0.11719 -0.11719,0 0,-0.23437 0.35156,-1.21094 -0.0781,0 0,-0.15625 0.15625,-0.19531 0,0.11719 0.19531,0 0.0781,-0.58594 -0.19531,0 0,0.11719 0.54688,-1.25 -0.11719,0 0,-0.19532 1.60156,-3.98437 0.85938,-0.19531 c 0.23436,0.31251 0.40363,0.66407 0.50781,1.05468 0.1302,0.3646 0.1953,0.76825 0.19531,1.21094 -0.13022,0.44272 -0.28647,0.87241 -0.46875,1.28906 -0.15626,0.41668 -0.40365,0.78126 -0.74219,1.09375 l -1.01562,0.50782 -0.0781,0.27343 -0.42968,0.19532 0,0.0781 -0.42969,0.58594 -0.15625,0 -0.15625,0.54687 -0.27344,0.19532 -0.23437,0.85937 m 19.29687,-3.90625 -0.19531,-0.58594 2.1875,-0.35156 0,-0.19531 -0.23438,-0.19531 c -0.15627,-0.31249 -0.2995,-0.62499 -0.42968,-0.9375 -0.1042,-0.33853 -0.13024,-0.72916 -0.0781,-1.17188 l -0.50781,0 -0.35156,0.23438 -0.3125,-0.23438 c -0.1042,-0.31248 -0.2344,-0.58592 -0.39063,-0.82031 -0.13023,-0.2604 -0.19534,-0.58592 -0.19531,-0.97656 l 0.50781,0 c 0.15623,0.13022 0.35154,0.19533 0.58594,0.19531 0.26039,2e-5 0.5208,2e-5 0.78125,0 0.88539,-0.23436 1.75778,-0.49478 2.61719,-0.78125 0.88538,-0.28644 1.8359,-0.42967 2.85156,-0.42969 l 0.27344,0.0781 c 0.28642,0.31251 0.50778,0.65105 0.66406,1.01562 0.15621,0.33856 0.2083,0.72918 0.15625,1.17188 l -0.39063,1.21093 -0.19531,0 -0.19531,0.3125 -0.39063,0.58594 -0.23437,0 0,-0.78125 0.0391,-0.35156 -0.15625,-1.75781 -1.17187,-0.0781 -1.09375,0.58594 0,0.15625 c 0.2083,0.0781 0.36455,0.23439 0.46875,0.46875 0.13017,0.20835 0.24736,0.41668 0.35156,0.625 l 0.11719,0.82031 -0.11719,0.39063 1.01562,0 0,0.27343 c -0.83336,0.31252 -1.67971,0.612 -2.53906,0.89844 -0.83336,0.28647 -1.70576,0.4948 -2.61719,0.625 l -0.58593,-0.0781 -0.23438,0.0781 m -8.39844,-1.05469 -1.60156,-0.82031 c -0.18231,-0.39061 -0.40366,-0.74217 -0.66406,-1.05469 -0.23439,-0.33852 -0.39064,-0.72915 -0.46875,-1.17187 l 0.27344,-0.0781 c 0.46873,0.18231 0.91144,0.39064 1.32812,0.625 0.41665,0.23439 0.79425,0.57293 1.13281,1.01563 0.15624,0.15626 0.2604,0.35157 0.3125,0.58594 0.0781,0.23438 0.11717,0.48178 0.11719,0.74218 l -0.42969,0.15625 m 7.10938,-0.35156 0,-0.39062 c -0.10419,-0.57291 -0.22138,-1.17186 -0.35156,-1.79688 -0.10419,-0.65102 -0.2344,-1.24998 -0.39063,-1.79687 l 0.23438,-0.11719 0,-0.0781 0.19531,0 c 0.20831,0.13023 0.3906,0.2995 0.54687,0.50782 0.18227,0.20835 0.3255,0.44272 0.42969,0.70312 l 0,1.05469 c -0.15627,0.23439 -0.2995,0.53387 -0.42969,0.89844 -0.10419,0.36459 -0.18231,0.70313 -0.23437,1.01562 m 5.58594,-0.11719 0,-0.46875 -0.42969,-1.91406 0.0781,-0.27344 -0.3125,0 -2.22656,0.58594 0,0.15625 0.42969,0.23438 c 0.18226,0.23439 0.33851,0.52084 0.46875,0.85937 0.15622,0.31251 0.23435,0.62501 0.23437,0.9375 l -0.11718,0.27344 0.58593,0 1.28907,-0.39063 m -8.125,-5.625 0,-0.0391 c 0.23435,-0.52081 0.41664,-1.04165 0.54687,-1.5625 0.15623,-0.54685 0.23435,-1.11977 0.23438,-1.71875 l 0.23437,0 0.9375,1.25 0,0.46875 -1.32812,0.97656 0,0.15625 -0.42969,0.11719 -0.11719,0.35156 -0.0781,0 m 6.21093,-0.15625 c -0.36461,-0.0781 -0.71617,-0.13019 -1.05468,-0.15625 -0.33857,-0.026 -0.65107,-0.19529 -0.9375,-0.50781 -0.20836,-0.44269 -0.39065,-0.8854 -0.54688,-1.32812 -0.13023,-0.46873 -0.19534,-0.97654 -0.19531,-1.52344 l 0.35156,0 0.58594,1.79687 0.9375,0.0781 2.53906,-0.58594 1.09375,0.70313 c 0.10414,0.13022 0.19528,0.24741 0.27344,0.35156 0.0781,0.0781 0.10413,0.20835 0.0781,0.39062 l -0.27343,0.39063 c -0.52087,-0.0521 -1.02868,-0.026 -1.52344,0.0781 -0.46878,0.0781 -0.91149,0.18231 -1.32813,0.3125 m -8.67187,-2.85156 0,-3.04687 c -2e-5,-0.5729 -0.13023,-1.08071 -0.39063,-1.52344 -0.23439,-0.44268 -0.40366,-0.91143 -0.50781,-1.40625 l 0.42969,0 c 0.3906,0.10419 0.74217,0.27346 1.05469,0.50781 0.33852,0.20836 0.65102,0.50784 0.9375,0.89844 0.18227,0.26044 0.3255,0.49482 0.42968,0.70312 0.10415,0.20836 0.13019,0.4818 0.0781,0.82032 l -0.23438,0.39062 c -0.23439,3e-5 -0.46877,0.0651 -0.70312,0.19531 -0.20836,0.10419 -0.42971,0.15628 -0.66406,0.15625 l -0.42969,2.30469 m 8.71094,-0.58594 c -0.20837,-0.31247 -0.4167,-0.61195 -0.625,-0.89843 -0.18232,-0.28644 -0.27347,-0.61196 -0.27344,-0.97657 l 0.3125,-0.19531 1.28906,1.01563 0,0.66406 -0.70312,0.39062 m 5.42968,-0.0781 0,-0.0781 c 0.23434,-0.65101 0.44268,-1.31508 0.625,-1.99218 0.2083,-0.7031 0.33851,-1.40623 0.39063,-2.10938 -0.20837,-0.20831 -0.42972,-0.41664 -0.66406,-0.625 -0.23441,-0.23435 -0.49483,-0.31247 -0.78125,-0.23437 -0.44275,0.31252 -0.95056,0.5469 -1.52344,0.70312 -0.54691,0.15628 -1.13284,0.20836 -1.75781,0.15625 l -1.875,-0.19531 c -0.20837,0.0521 -0.42972,0.11721 -0.66407,0.19531 -0.2344,0.0521 -0.45575,0.14326 -0.66406,0.27344 l -0.11719,0.39062 -0.0781,0 0,-0.19531 -0.15625,0 c -0.39065,0.13024 -0.78128,0.29951 -1.17188,0.50781 -0.3646,0.20836 -0.76825,0.35159 -1.21093,0.42969 l -0.58594,-0.35156 c -0.13023,-0.26039 -0.2995,-0.49477 -0.50781,-0.70313 -0.18232,-0.23434 -0.2344,-0.53382 -0.15625,-0.89843 l 0.23437,0 1.67969,0.23437 1.71875,-0.35156 0,-0.39063 c -0.0521,-0.93747 -0.2344,-1.8359 -0.54688,-2.69531 -0.31252,-0.85934 -0.75523,-1.66663 -1.32812,-2.42187 l 0.42969,-0.11719 0.42968,-0.19531 3.39844,1.52343 c 0.20831,0.31253 0.40362,0.62503 0.58594,0.9375 0.2083,0.28649 0.28643,0.65108 0.23437,1.09375 l -0.0781,0.15625 -0.50781,0.19532 -0.19532,0.46875 -0.15625,0 c -0.10419,-0.13018 -0.2344,-0.19529 -0.39062,-0.19532 -0.13024,3e-5 -0.28649,3e-5 -0.46875,0 l -0.89844,0.58594 -0.11719,0.74219 0.27344,0 c 0.88539,-0.44268 1.86195,-0.69008 2.92969,-0.74219 1.09372,-0.0521 2.0833,-0.27341 2.96875,-0.66406 0.5208,0.0521 1.00257,0.20836 1.44531,0.46875 0.46872,0.26044 0.8984,0.61201 1.28906,1.05469 0.15622,0.31252 0.33851,0.612 0.54688,0.89843 0.2083,0.28649 0.31246,0.62503 0.3125,1.01563 l -1.36719,1.40625 -0.74219,0.39062 -0.78125,1.32813 m -1.75781,-0.19531 -0.15625,-0.11719 -0.97656,-1.21094 0,-0.39062 0.78125,-0.19532 1.01562,0.85938 0.23438,0.85937 -0.89844,0.19532"
             id="path5400"
             style="fill:#ad3131;font-family:Font2;-inkscape-font-specification:Font2"
             inkscape:connector-curvature="0" />
          <path
             d="m 248.11942,492.92023 -0.35157,-0.0781 0,-0.11719 c 1.24999,-0.65104 2.27864,-1.49739 3.08594,-2.53906 0.80728,-1.0677 1.56249,-2.09635 2.26563,-3.08594 l 0,-0.58593 0.19531,0 0,-0.11719 0.39062,0 0.78125,0.39062 0.42969,0.9375 c -0.0781,0.1823 -0.15627,0.32553 -0.23437,0.42969 -0.0521,0.10417 -0.18231,0.1823 -0.39063,0.23438 -0.33856,0.026 -0.65106,0.14323 -0.9375,0.35156 -0.26043,0.1823 -0.49481,0.40365 -0.70312,0.66406 -0.26044,0.26042 -0.44273,0.57292 -0.54688,0.9375 -0.10418,0.33855 -0.31251,0.63802 -0.625,0.89844 -0.46876,0.41667 -0.9896,0.76823 -1.5625,1.05469 -0.54689,0.28646 -1.14584,0.49479 -1.79687,0.625 m 10.78125,-0.27344 -0.89844,-0.3125 c -0.18231,-0.39062 -0.37763,-0.78125 -0.58594,-1.17188 -0.18231,-0.39062 -0.31252,-0.79426 -0.39062,-1.21093 l 0.19531,0 c 0.13019,-0.67708 0.19529,-1.36719 0.19531,-2.07032 0.026,-0.72916 0.0781,-1.45832 0.15625,-2.1875 l -0.15625,-0.78125 -0.39062,0 c -0.52086,0.10418 -1.09377,0.15626 -1.71875,0.15625 -0.59898,10e-6 -1.1719,0.0781 -1.71875,0.23438 l -0.27344,0.82031 -0.78125,0.0781 c -0.39064,-0.20833 -0.82033,-0.46875 -1.28906,-0.78125 -0.44273,-0.33854 -0.71616,-0.72916 -0.82032,-1.17188 1.17186,-0.20832 2.33072,-0.4427 3.47657,-0.70312 1.14581,-0.28645 2.33071,-0.50781 3.55468,-0.66407 l 0.11719,-1.67968 -0.35156,-1.13282 0.35156,0 0.27344,-0.19531 c 0.3906,0.26043 0.76821,0.50783 1.13281,0.74219 0.3906,0.23439 0.78123,0.52084 1.17188,0.85937 l 0.0391,0.82032 0.27344,0 2.30468,-0.78125 0.0781,-0.15625 0.35156,0 0,-0.27344 0.625,0 2.10938,0.9375 c 0.10413,0.10418 0.2083,0.24741 0.3125,0.42969 0.10413,0.15626 0.11715,0.33855 0.0391,0.54687 l -0.78125,0.11719 c -0.52086,-0.26041 -1.05472,-0.48176 -1.60156,-0.66406 -0.52086,-0.18228 -1.1068,-0.23437 -1.75782,-0.15625 l -0.70312,0.19531 -0.89844,1.28906 -0.15625,0 c -0.13023,0.28647 -0.26044,0.55991 -0.39062,0.82031 -0.13024,0.26043 -0.19534,0.54689 -0.19532,0.85938 l 0.23438,1.75781 c -3e-5,0.72917 -0.13023,1.36719 -0.39063,1.91406 -0.26044,0.54688 -0.33856,1.19792 -0.23437,1.95313 l 0.0781,1.17187 -0.3125,0.39063 -0.27343,0 m 7.73437,-0.74219 -1.13281,-0.50781 c -0.49482,-1.14583 -1.11982,-2.23958 -1.875,-3.28125 -0.75524,-1.0677 -1.36721,-2.16145 -1.83594,-3.28125 l 0.54688,0 c 0.5208,0.20834 1.00257,0.4948 1.44531,0.85937 0.44268,0.33855 0.85935,0.70314 1.25,1.09375 l 0.11719,0.23438 0.46875,0.19531 0.3125,0.39063 0,0.11718 0.15625,0 0.74218,1.13282 c 0.57289,0.26042 1.14581,0.48177 1.71875,0.66406 0.59893,0.15625 1.15882,0.40365 1.67969,0.74219 l 0.11719,0.66406 -0.11719,0.23437 c -0.75524,-0.15624 -1.39326,-0.0781 -1.91406,0.23438 -0.49482,0.3125 -1.05472,0.48177 -1.67969,0.50781 m -10.39062,-11.75781 c -0.46877,-0.10415 -0.91148,-0.27342 -1.32813,-0.50781 -0.41668,-0.23436 -0.82033,-0.49478 -1.21094,-0.78125 l -0.85937,-0.70313 0,-0.27344 0.27344,0 0,-0.15625 1.36718,-0.35156 0,-0.19531 c -0.41668,-1.1979 -0.71616,-2.4479 -0.89843,-3.75 -0.18231,-1.3281 -0.49481,-2.59112 -0.9375,-3.78906 l 0.58593,-0.0391 0.89844,0.23438 c 0.44269,-1.0156 0.9505,-2.03123 1.52344,-3.04688 0.59894,-1.01559 1.11977,-2.07028 1.5625,-3.16406 l -0.0781,-0.23437 1.05469,-0.35157 c 0.65102,0.28649 1.30206,0.50785 1.95313,0.66407 0.67705,0.15628 1.28903,0.53388 1.83593,1.13281 0.15623,0.31253 0.24737,0.66409 0.27344,1.05469 0.0521,0.36461 0.0781,0.76825 0.0781,1.21093 l -0.3125,0 c -0.39065,-0.26039 -0.7943,-0.4557 -1.21094,-0.58593 -0.41669,-0.15623 -0.88544,-0.23435 -1.40625,-0.23438 l -0.78125,0.35156 -0.42969,0.70313 -0.19531,-0.15625 -0.0781,0.27344 -0.19531,0 0,-0.11719 -0.15625,0 0,0.15625 -0.15625,0 -0.19531,0.35156 0.70312,-1.48437 -0.19531,0 -0.58594,0.82031 -0.35156,0.66406 -0.42969,0 -0.23437,0.39063 -0.23438,0.0781 0,0.11719 c -0.3646,0.13023 -0.6771,0.32554 -0.9375,0.58594 -0.23439,0.26044 -0.45574,0.53387 -0.66406,0.82031 l 0,0.23437 0.78125,0.15625 0.70313,0.50782 0.74218,1.05468 c 0.41665,0.0261 0.79425,0.11721 1.13282,0.27344 0.36456,0.13023 0.69008,0.32554 0.97656,0.58594 0.10414,0.20835 0.22133,0.41669 0.35156,0.625 0.13019,0.18231 0.19529,0.41669 0.19531,0.70312 l -0.11718,0.11719 c -0.2344,0.2344 -0.53388,0.33856 -0.89844,0.3125 -0.36461,-0.026 -0.67711,-0.013 -0.9375,0.0391 l -1.25,-0.89843 -0.42969,3.4375 0.58594,0 c 0.46873,-0.0781 0.9505,-0.15624 1.44531,-0.23438 0.49477,-0.10415 0.98956,-0.15623 1.48438,-0.15625 l 0.625,0.35156 0.46875,0.42969 -0.11719,0.27344 0.11719,0.23437 0.3125,0.0781 0,0.23437 c -0.52086,0.33856 -1.13284,0.53387 -1.83594,0.58594 -0.70315,0.0521 -1.31513,0.27345 -1.83594,0.66406 l -0.54687,0.70313 m 6.09375,-1.95313 -0.11719,-0.23437 -0.78125,-0.58594 c -0.10419,-0.18227 -0.24742,-0.37759 -0.42969,-0.58594 -0.18232,-0.23435 -0.27346,-0.48175 -0.27344,-0.74218 l 0.11719,-0.66407 -1.01562,-4.76562 -0.85938,-0.39063 -1.52344,-1.79687 0,-0.19531 0.54688,-0.0781 c 0.23435,0.10419 0.45571,0.18232 0.66406,0.23438 0.20831,0.0261 0.45571,0.0261 0.74219,0 l 0.78125,-0.15625 c 0.36456,0.0521 0.7031,0.18231 1.01562,0.39062 0.33852,0.20836 0.65102,0.45576 0.9375,0.74219 0.23435,0.26044 0.36456,0.53388 0.39063,0.82031 0.0521,0.28648 0.0781,0.59898 0.0781,0.9375 l -0.11718,0.46875 c 0.36455,0.8594 0.5208,1.80992 0.46875,2.85156 -0.0261,1.01565 0.0521,1.97919 0.23437,2.89063 -0.0521,0.15627 -0.11721,0.29949 -0.19531,0.42969 -0.0521,0.13022 -0.15628,0.26043 -0.3125,0.39062 l -0.35156,0.0391 m -15.35157,-1.21093 0,-0.0391 c -0.26042,-0.2604 -0.44271,-0.5729 -0.54687,-0.9375 -0.10418,-0.36456 -0.15626,-0.72914 -0.15625,-1.09375 l 0.89844,-1.95312 -0.3125,0 c -0.18231,0.18231 -0.40366,0.27346 -0.66407,0.27344 -0.26042,2e-5 -0.53386,2e-5 -0.82031,0 l -0.42969,-0.27344 c -0.13021,-0.20831 -0.22136,-0.41665 -0.27343,-0.625 -0.026,-0.20831 -0.0391,-0.45571 -0.0391,-0.74219 0.20833,-0.96352 0.53385,-1.888 0.97657,-2.77344 0.44269,-0.88539 0.74217,-1.80987 0.89843,-2.77343 l 0.3125,0 c 0.28645,0.0521 0.54687,0.18232 0.78125,0.39062 0.23437,0.18232 0.48176,0.35159 0.74219,0.50781 0.1302,0.15628 0.20832,0.35159 0.23438,0.58594 0.0521,0.20836 0.0781,0.41669 0.0781,0.625 -0.28647,0.41669 -0.66407,0.76826 -1.13281,1.05469 -0.46876,0.28648 -0.83335,0.69013 -1.09375,1.21094 l -0.27344,1.01562 0.23438,0 c 0.31249,-0.10414 0.67707,-0.16925 1.09375,-0.19531 0.41665,-0.026 0.76821,-0.15623 1.05468,-0.39063 l 0.66407,-1.32812 0.19531,-0.11719 1.09375,0.9375 0.0781,0.85938 c -0.23439,0.75523 -0.63803,1.44533 -1.21093,2.07031 -0.54689,0.59898 -0.88543,1.3021 -1.01563,2.10937 l 0.46875,0 1.67969,-0.15625 0,-0.27343 c -0.13022,-0.18228 -0.24741,-0.40363 -0.35156,-0.66407 -0.10418,-0.28643 -0.15627,-0.55987 -0.15625,-0.82031 l 0.23437,-0.19531 1.05469,0.70312 c 0.23436,0.26044 0.44269,0.53388 0.625,0.82032 0.18227,0.28647 0.27342,0.61199 0.27344,0.97656 l -0.89844,0.11719 -0.15625,-0.11719 -0.42969,-0.3125 -0.46875,0.97656 c -0.46876,0.33856 -0.97657,0.50783 -1.52344,0.50781 -0.54688,2e-5 -1.1198,0.013 -1.71875,0.0391 m 18.00782,-1.01563 c -0.18232,-0.28644 -0.36462,-0.58592 -0.54688,-0.89844 -0.18232,-0.33852 -0.24742,-0.69008 -0.19531,-1.05468 l 0.0781,-0.15625 2.38282,-3.125 -0.0781,0 -1.875,0.54687 c -0.20836,-0.20831 -0.36461,-0.42966 -0.46875,-0.66406 -0.0781,-0.26039 -0.0912,-0.54685 -0.0391,-0.85938 0.49476,-0.80726 1.01559,-1.58851 1.5625,-2.34375 0.54684,-0.75518 0.88538,-1.58851 1.01562,-2.5 l 0.35157,-0.0781 1.21093,1.05469 0.0781,0.74218 -0.58594,0.85938 c -0.20836,0.15627 -0.44274,0.26044 -0.70312,0.3125 -0.23441,0.0261 -0.46878,0.10419 -0.70313,0.23437 -0.13024,0.26045 -0.31253,0.50784 -0.54687,0.74219 -0.20837,0.2344 -0.31253,0.50784 -0.3125,0.82031 l 0.42968,0 2.10938,-0.46875 c 0.15622,-0.23435 0.28642,-0.46872 0.39062,-0.70312 0.13018,-0.26039 0.23435,-0.52081 0.3125,-0.78125 l 0.42969,-0.0781 0.50781,0.39063 0.3125,0.89844 c -0.0782,0.33856 -0.22138,0.63804 -0.42968,0.89843 -0.20837,0.26044 -0.45577,0.53388 -0.74219,0.82032 l -1.13281,1.01562 -0.54688,0.58594 -0.15625,0 -0.89844,1.44531 0.42969,0 c 0.41664,-0.10415 0.80726,-0.19529 1.17188,-0.27344 0.39059,-0.0781 0.82028,-0.11716 1.28906,-0.11718 l 0,0.0391 -0.50781,0.27344 c -0.13024,0.20835 -0.22139,0.4297 -0.27344,0.66406 -0.0261,0.23439 -0.1693,0.46877 -0.42969,0.70312 -0.46878,0.15627 -0.96357,0.32554 -1.48437,0.50782 -0.49483,0.15626 -0.96357,0.33856 -1.40625,0.54687 m 6.25,-2.10937 -0.82032,-0.23438 -0.97656,-2.5 0.3125,-0.0781 c 0.31247,0.0521 0.61195,0.19533 0.89844,0.42968 0.31246,0.20836 0.5859,0.44273 0.82031,0.70313 0.18226,0.20835 0.29944,0.44273 0.35156,0.70312 0.0781,0.2344 0.15622,0.4818 0.23438,0.74219 -0.13025,0.15627 -0.27347,0.20835 -0.42969,0.15625 -0.15628,-0.0521 -0.28649,-0.026 -0.39062,0.0781"
             id="path5402"
             style="fill:#ad3131;font-family:Font2;-inkscape-font-specification:Font2"
             inkscape:connector-curvature="0" />
        </g>
      </g>
    </g>
  </g>
</svg>
