<!-- Created with Inkscape (http://www.inkscape.org/) -->
<svg xmlns:rdf="http://www.w3.org/1999/02/22-rdf-syntax-ns#" xmlns="http://www.w3.org/2000/svg" height="24.545" width="146.39" version="1.1" xmlns:cc="http://creativecommons.org/ns#" xmlns:xlink="http://www.w3.org/1999/xlink" xmlns:dc="http://purl.org/dc/elements/1.1/">
 <defs>
  <radialGradient id="radialGradient5751" gradientUnits="userSpaceOnUse" cy="86" cx="128" gradientTransform="matrix(1.0213,0,0,-1.0213,-212.72,173.83)" r="47">
   <stop stop-color="#d0e9f2" stop-opacity="0" offset="0"/>
   <stop stop-color="#d0e9f2" stop-opacity="0" offset="0.83933"/>
   <stop stop-color="#d0e9f2" stop-opacity=".28185" offset="0.94309"/>
   <stop stop-color="#d0e9f2" offset="1"/>
  </radialGradient>
  <linearGradient id="linearGradient5778" x1="128" xlink:href="#linearGradient5762" gradientUnits="userSpaceOnUse" y1="134.36" gradientTransform="translate(-210,0)" x2="130.88" y2="143.36"/>
  <linearGradient id="linearGradient5762">
   <stop stop-color="#2d3335" offset="0"/>
   <stop stop-color="#4c464a" offset="0.5"/>
   <stop stop-color="#384042" offset="1"/>
  </linearGradient>
  <linearGradient id="linearGradient5768" x1="123" xlink:href="#linearGradient5762" gradientUnits="userSpaceOnUse" y1="150.38" gradientTransform="matrix(-1,0,0,1,46,0)" x2="133" y2="150.38"/>
  <linearGradient id="linearGradient5868" x1="120" gradientUnits="userSpaceOnUse" y1="186.5" gradientTransform="translate(-210,0)" x2="136" y2="186.5">
   <stop stop-color="#f9e295" offset="0"/>
   <stop stop-color="#f7dd84" offset="0.125"/>
   <stop stop-color="#fff" offset="0.20581"/>
   <stop stop-color="#f4ce51" offset="0.30113"/>
   <stop stop-color="#f9e7aa" offset="0.3412"/>
   <stop stop-color="#efbb0e" offset="1"/>
  </linearGradient>
  <linearGradient id="linearGradient5798" x1="123" gradientUnits="userSpaceOnUse" x2="133" gradientTransform="matrix(-2,0,0,1.7699,174,-86.65)" y1="150.38" y2="150.38">
   <stop stop-color="#2d3335" offset="0"/>
   <stop stop-color="#4c464a" offset="0.5"/>
   <stop stop-color="#384042" offset="1"/>
  </linearGradient>
  <linearGradient id="linearGradient5899" x1="120" gradientUnits="userSpaceOnUse" x2="136" gradientTransform="translate(-210,67)" y1="186.5" y2="186.5">
   <stop stop-color="#f9e295" offset="0"/>
   <stop stop-color="#f7dd84" offset="0.125"/>
   <stop stop-color="#fff" offset="0.20581"/>
   <stop stop-color="#f4ce51" offset="0.30113"/>
   <stop stop-color="#f9e7aa" offset="0.3412"/>
   <stop stop-color="#efbb0e" offset="1"/>
  </linearGradient>
 </defs>
 <metadata>
  <rdf:RDF>
   <cc:Work rdf:about="">
    <dc:format>image/svg+xml</dc:format>
    <dc:type rdf:resource="http://purl.org/dc/dcmitype/StillImage"/>
    <dc:title/>
   </cc:Work>
  </rdf:RDF>
 </metadata>
 <text font-size="40px" font-family="SVGFont" style="letter-spacing:0px;word-spacing:0px;" font-style="normal" line-height="125%" font-stretch="normal" xml:space="preserve" font-variant="normal" y="61.15023" x="81.348785" font-weight="bold" fill="#000000"><tspan y="61.15023" x="81.348785"/></text>
 <g font-size="24.85558701px" font-family="SVGFont" transform="matrix(0.70614193,0,0,1.0400059,-141.63072,-211.19578)" line-height="125%" font-stretch="normal" font-variant="normal" font-style="normal" font-weight="bold" style="letter-spacing:0px;word-spacing:0px;" fill="#F00">
  <text font-size="40px" font-family="SVGFont" transform="matrix(1.2588624,0,0,0.96153301,156.03744,153.57905)" font-style="normal" line-height="125%" font-stretch="normal" xml:space="preserve" font-variant="normal" y="50.804005" x="201.6517" font-weight="bold" style="letter-spacing:0px;word-spacing:0px;" fill="#000000"><tspan y="50.804005" x="201.6517"/></text>
 </g>
 <path d="m24.615,9.9415c0,5.4354-6.2118,11.453-9.7835,13.869-4.168-2.617-9.9826-8.433-9.9826-13.868,0-5.4354,4.4247-9.8415,9.8836-9.8415,5.4581,0,9.8832,4.4062,9.8832,9.8415z" stroke="#FFF" stroke-miterlimit="4" stroke-dasharray="none" stroke-width="0.2" fill="#F00"/>
 <g style="letter-spacing:0px;word-spacing:0px;" font-weight="normal" transform="translate(4.266e-7,-1.8044757)" font-size="13px" font-stretch="normal" line-height="125%" font-variant="normal" font-family="Hero" font-style="normal" fill="#FFF">
  <path d="m32.086,11.456c0.039-1.508-0.676-2.795-2.093-3.38l0.013,0.013c-0.403-0.169-0.845-0.247-1.248-0.247-0.78,0-1.69,0.338-2.132,1.144v-0.611c0-0.286-0.143-0.455-0.442-0.455s-0.481,0.169-0.481,0.455v8.073c0,0.598,0.949,0.598,0.949,0v-2.795c0.39,0.689,1.235,1.04,2.106,1.04,1.95,0,3.276-1.391,3.328-3.237m-3.25-2.717c0.494,0.039,0.962,0.195,1.339,0.494,0.702,0.585,0.975,1.365,0.962,2.21-0.013,0.338-0.091,0.689-0.195,0.962-0.377,0.897-1.3,1.391-2.223,1.391-1.183-0.052-2.067-0.858-2.067-2.002v-1.027c0-1.274,1.001-2.028,2.184-2.028"/>
  <path d="m37.203,7.9594c-0.637-0.169-1.339-0.182-1.95,0-2.418,0.676-3.029,3.666-1.625,5.512,0.611,0.767,1.625,1.157,2.639,1.157,0.845,0.013,1.716-0.221,2.314-0.78,0.507-0.52-0.169-1.053-0.624-0.637-0.507,0.39-1.131,0.546-1.729,0.546-1.3,0-2.21-0.884-2.379-1.95h5.135c0.533,0,0.663-0.312,0.637-0.598v0.013c-0.026-1.664-0.936-2.86-2.405-3.263h-0.013m-1.664,0.858c0.442-0.13,0.975-0.13,1.404-0.013h-0.013c1.014,0.26,1.69,1.105,1.781,2.21h-4.901c0.078-1.053,0.689-1.924,1.729-2.197"/>
  <path d="m46.193,14.173c0,0.286,0.195,0.455,0.481,0.455,0.299,0,0.468-0.169,0.468-0.455v-3.445c0-1.872-1.443-2.912-2.951-2.912-1.014,0-2.015,0.403-2.483,1.352v-0.806c0-0.624-0.936-0.611-0.936-0.013v5.824c0,0.286,0.195,0.455,0.494,0.455s0.468-0.169,0.468-0.455v-3.016c0-1.417,1.183-2.457,2.444-2.457,1.053,0,2.015,0.832,2.015,2.028v3.445"/>
  <path d="m48.052,12.73c0.429,1.56,2.457,2.015,3.783,2.015,1.599,0,3.822-0.611,3.822-2.6,0-1.95-1.911-2.041-3.692-2.197-1.508-0.117-2.808-0.234-2.808-1.365,0-1.183,1.69-1.534,2.561-1.534,0.936,0,2.327,0.169,2.717,1.157,0.195,0.442,1.079,0.208,0.884-0.312-0.546-1.482-2.249-1.807-3.614-1.807-1.586,0-3.562,0.767-3.562,2.483,0,1.937,1.924,2.106,3.718,2.249,1.43,0.117,2.795,0.208,2.795,1.339,0,1.313-1.716,1.651-2.821,1.651-1.04,0-2.483-0.234-2.821-1.313-0.104-0.533-1.118-0.338-0.962,0.234"/>
  <path d="m57.97,7.9334,0-1.508c0-0.611-0.936-0.624-0.936,0v1.508h-0.858c-0.572,0-0.611,0.819,0,0.819h0.858v3.51c0,1.235,0.377,2.379,1.937,2.379,0.351,0,0.676-0.039,1.001-0.221,0.585-0.325,0.156-1.092-0.39-0.78-0.13,0.078-0.416,0.143-0.611,0.143-0.884,0-1.001-0.78-1.001-1.521v-3.51h1.417c0.585,0,0.585-0.819,0-0.819h-1.417"/>
  <path d="m61.899,8.3624c0-0.624-0.923-0.572-0.923,0v5.759c0,0.273,0.195,0.455,0.481,0.455,0.247,0,0.468-0.182,0.468-0.455v-2.938c0-1.313,0.572-2.379,1.911-2.379,0.299,0,0.494-0.156,0.494-0.442,0-0.299-0.195-0.455-0.494-0.455-0.741,0-1.521,0.234-1.937,1.105v-0.65"/>
  <path d="m68.731,7.9594c-0.637-0.169-1.339-0.182-1.95,0-2.418,0.676-3.029,3.666-1.625,5.512,0.611,0.767,1.625,1.157,2.639,1.157,0.845,0.013,1.716-0.221,2.314-0.78,0.507-0.52-0.169-1.053-0.624-0.637-0.507,0.39-1.131,0.546-1.729,0.546-1.3,0-2.21-0.884-2.379-1.95h5.135c0.533,0,0.663-0.312,0.637-0.598v0.013c-0.026-1.664-0.936-2.86-2.405-3.263h-0.013m-1.664,0.858c0.442-0.13,0.975-0.13,1.404-0.013h-0.013c1.014,0.26,1.69,1.105,1.781,2.21h-4.901c0.078-1.053,0.689-1.924,1.729-2.197"/>
  <path d="m76.266,7.9594c-0.637-0.169-1.339-0.182-1.95,0-2.418,0.676-3.029,3.666-1.625,5.512,0.611,0.767,1.625,1.157,2.639,1.157,0.845,0.013,1.716-0.221,2.314-0.78,0.507-0.52-0.169-1.053-0.624-0.637-0.507,0.39-1.131,0.546-1.729,0.546-1.3,0-2.21-0.884-2.379-1.95h5.135c0.533,0,0.663-0.312,0.637-0.598v0.013c-0.026-1.664-0.936-2.86-2.405-3.263h-0.013m-1.664,0.858c0.442-0.13,0.975-0.13,1.404-0.013h-0.013c1.014,0.26,1.69,1.105,1.781,2.21h-4.901c0.078-1.053,0.689-1.924,1.729-2.197"/>
  <path d="m80.999,7.9334,0-1.508c0-0.611-0.936-0.624-0.936,0v1.508h-0.858c-0.572,0-0.611,0.819,0,0.819h0.858v3.51c0,1.235,0.377,2.379,1.937,2.379,0.351,0,0.676-0.039,1.001-0.221,0.585-0.325,0.156-1.092-0.39-0.78-0.13,0.078-0.416,0.143-0.611,0.143-0.884,0-1.001-0.78-1.001-1.521v-3.51h1.417c0.585,0,0.585-0.819,0-0.819h-1.417"/>
  <path d="m88.243,11.417-3.172-4.94c-0.26-0.468-0.884-0.325-0.884,0.234v7.488c0,0.624,0.949,0.624,0.949,0v-5.902l2.652,4.134c0.195,0.377,0.689,0.377,0.897,0l2.652-4.147v5.915c0,0.624,0.949,0.624,0.949,0v-7.488c0-0.546-0.598-0.702-0.897-0.234l-3.146,4.94"/>
  <path d="m95.564,8.0894c-1.248,0.481-1.976,1.69-2.002,3.003-0.039,1.274,0.468,2.379,1.456,3.055,0.546,0.39,1.248,0.559,1.872,0.559,0.767,0,1.729-0.429,2.106-1.183v0.624c0,0.286,0.169,0.468,0.468,0.468,0.286,0,0.481-0.182,0.481-0.468v-5.772c0-0.273-0.195-0.468-0.481-0.468-0.299,0-0.468,0.195-0.468,0.468v0.494c-0.468-0.767-1.313-1.001-2.054-1.014-0.494-0.013-0.962,0.052-1.391,0.247l0.013-0.013m1.235,5.72c-0.481-0.039-0.949-0.195-1.339-0.494-0.702-0.585-0.975-1.365-0.949-2.21,0.013-0.338,0.078-0.689,0.195-0.962,0.364-0.91,1.3-1.404,2.223-1.391,1.17,0.052,2.067,0.715,2.067,2.002v1.027c-0.065,1.3-1.001,2.028-2.197,2.028"/>
  <path d="m107.83,11.456c0.039-1.508-0.676-2.795-2.093-3.38l0.013,0.013c-0.403-0.169-0.845-0.247-1.248-0.247-0.78,0-1.69,0.338-2.132,1.144v-0.611c0-0.286-0.143-0.455-0.442-0.455s-0.481,0.169-0.481,0.455v8.073c0,0.598,0.949,0.598,0.949,0v-2.795c0.39,0.689,1.235,1.04,2.106,1.04,1.95,0,3.276-1.391,3.328-3.237m-3.25-2.717c0.494,0.039,0.962,0.195,1.339,0.494,0.702,0.585,0.975,1.365,0.962,2.21-0.013,0.338-0.091,0.689-0.195,0.962-0.377,0.897-1.3,1.391-2.223,1.391-1.183-0.052-2.067-0.858-2.067-2.002v-1.027c0-1.274,1.001-2.028,2.184-2.028"/>
 </g>
 <path d="m111.08,3.5229,0,19.049" stroke="#FFF" stroke-linecap="round" stroke-miterlimit="4" stroke-dasharray="none" stroke-width="0.33758873" fill="#FFF"/>
 <g style="letter-spacing:0px;word-spacing:0px;" transform="matrix(0.69042259,0,0,0.70421619,-178.5962,-266.2021)" line-height="125%" font-size="12.88051414px" font-family="IPAGothic" fill="#FFF">
  <path style="baseline-shift:sub;" d="m353.54,400.02c0-0.57668-0.90263-0.61429-0.90263,0v7.3088c0,0.57668,0.90263,0.6519,0.90263,0v-3.0965h4.6135v3.0965c0,0.63936,0.91517,0.61429,0.91517,0v-7.3088c0-0.60176-0.91517-0.60176-0.91517,0v3.4225h-4.6135v-3.4225"/>
  <path style="baseline-shift:sub;" d="m363.64,407.83c2.1312,0,4.0117-1.6548,4.0117-4.2624,0-2.056-1.4919-3.6607-3.4225-3.9616-0.43878-0.0501-0.86502-0.0627-1.3289,0-1.9933,0.31341-3.3222,1.9933-3.3222,3.9616,0,2.6577,1.8053,4.2624,4.0618,4.2624m-0.6143-7.384c0.35103-0.0501,0.71459-0.0501,1.0907,0,1.542,0.25073,2.6076,1.542,2.6076,3.1592,0,2.1062-1.3916,3.3598-3.084,3.3598-1.7677,0-3.1216-1.3038-3.1216-3.3598,0-1.705,0.99039-2.921,2.5073-3.1592"/>
  <path style="baseline-shift:sub;" d="m373.88,404.46,0.12536,1.893-4.8266-6.4563c-0.31342-0.46385-1.0155-0.36356-1.0155,0.26327v7.1834c0,0.62683,0.95278,0.61429,0.95278,0v-4.4254l-0.10029-1.73,4.6887,6.2808c0.26326,0.43878,1.1283,0.37609,1.1283-0.25073v-7.196c0-0.55161-0.95278-0.52654-0.95278,0v4.4379"/>
  <path style="baseline-shift:sub;" d="m382.51,405.89,0-2.0936c0-0.2758-0.11283-0.46385-0.47639-0.46385h-2.6578c-0.52653,0-0.58922,0.82741,0,0.82741h2.2566v1.6674c-0.5516,0.73965-1.5169,1.1408-2.4446,1.1283-1.6172-0.0376-3.0464-1.5169-3.0715-3.2846,0-1.6423,1.2035-2.8583,2.5825-3.1843,0.94024-0.23819,2.1061,0.0501,2.8082,0.86502,0.38863,0.45132,1.028-0.15044,0.6519-0.58922-0.68951-0.80234-1.8554-1.1784-2.9461-1.1784-0.22566,0-0.46386,0.0125-0.65191,0.0376-1.9181,0.36356-3.3473,2.1061-3.3473,4.0117-0.0501,2.3694,1.8053,4.1621,3.9616,4.1747,1.216,0.0125,2.4572-0.52653,3.1968-1.5044,0.11283-0.11283,0.1379-0.27581,0.1379-0.41371"/>
  <path style="baseline-shift:sub;" d="m387.78,402.8-1.216,1.2286,0-3.9866c0-0.56414-0.91517-0.57668-0.91517,0v7.2963c0,0.58922,0.91517,0.56415,0.91517,0v-2.2942l1.3289-1.1659,3.5353,3.7359c0.46385,0.45131,1.1408-0.0376,0.66443-0.58922l-3.5604-3.7108,3.3222-2.9461c0.45131-0.40117-0.17551-1.0656-0.66444-0.62683l-3.41,3.0589"/>
  <path style="baseline-shift:sub;" d="m395.66,407.83c2.1312,0,4.0117-1.6548,4.0117-4.2624,0-2.056-1.4918-3.6607-3.4225-3.9616-0.43878-0.0501-0.86503-0.0627-1.3289,0-1.9933,0.31341-3.3222,1.9933-3.3222,3.9616,0,2.6577,1.8053,4.2624,4.0618,4.2624m-0.61429-7.384c0.35102-0.0501,0.71458-0.0501,1.0907,0,1.542,0.25073,2.6076,1.542,2.6076,3.1592,0,2.1062-1.3916,3.3598-3.084,3.3598-1.7677,0-3.1216-1.3038-3.1216-3.3598,0-1.705,0.99039-2.921,2.5073-3.1592"/>
  <path style="baseline-shift:sub;" d="m405.9,404.46,0.12537,1.893-4.8266-6.4563c-0.31341-0.46385-1.0155-0.36356-1.0155,0.26327v7.1834c0,0.62683,0.95278,0.61429,0.95278,0v-4.4254l-0.1003-1.73,4.6887,6.2808c0.26327,0.43878,1.1283,0.37609,1.1283-0.25073v-7.196c0-0.55161-0.95278-0.52654-0.95278,0v4.4379"/>
  <path style="baseline-shift:sub;" d="m414.53,405.89,0-2.0936c0-0.2758-0.11283-0.46385-0.47639-0.46385h-2.6578c-0.52653,0-0.58921,0.82741,0,0.82741h2.2566v1.6674c-0.55161,0.73965-1.5169,1.1408-2.4446,1.1283-1.6172-0.0376-3.0464-1.5169-3.0715-3.2846,0-1.6423,1.2035-2.8583,2.5825-3.1843,0.94024-0.23819,2.1061,0.0501,2.8082,0.86502,0.38863,0.45132,1.028-0.15044,0.6519-0.58922-0.68951-0.80234-1.8554-1.1784-2.9461-1.1784-0.22566,0-0.46385,0.0125-0.6519,0.0376-1.9181,0.36356-3.3473,2.1061-3.3473,4.0117-0.0501,2.3694,1.8053,4.1621,3.9616,4.1747,1.216,0.0125,2.4572-0.52653,3.1968-1.5044,0.11283-0.11283,0.13791-0.27581,0.13791-0.41371"/>
 </g>
 <path d="m125.11,16.446,0-1.6361-7.456,0,0,1.6361,7.456,0m0,2.3824,0-1.8084-7.456,0,0,1.8084,7.456,0m0.63757-4.4922c0.059,0.0574,0.0885,0.13395,0.0885,0.22963v5.1237c-0.00001,0.22006-0.11808,0.33009-0.3542,0.3301-0.24796-0.00001-0.37193-0.11005-0.37192-0.3301v-0.28704h-7.456v0.27269c0,0.20093-0.11806,0.30138-0.3542,0.30138-0.23613,0-0.3542-0.10051-0.3542-0.30138v-5.138c0-0.067,0.0354-0.13397,0.10623-0.20094,0.0708-0.067,0.15348-0.10051,0.24794-0.10051h8.2175c0.0945,0.0101,0.1712,0.0431,0.23025,0.10051m-4.6578-6.157c-0.77925,0.0862-1.6116,0.16266-2.4971,0.22963-0.88551,0.0574-1.653,0.0862-2.3023,0.0862-0.10624,0.0287-0.20661,0.0144-0.30107-0.0431-0.0827-0.067-0.12397-0.14352-0.12397-0.22963,0.0236-0.14352,0.11807-0.22485,0.28336-0.244,0.76744,0.00003,1.5113-0.0191,2.2315-0.0574,0.7202-0.0479,1.6884-0.14351,2.9045-0.28704,0.83826-0.10523,1.5821-0.21049,2.2315-0.31575,0.66117-0.10522,1.405-0.24877,2.2315-0.43056,0.0472-0.0383,0.11804-0.0574,0.21251-0.0574,0.24793,0.00001,0.3719,0.0813,0.37191,0.24399,0.0118,0.0765-0.0118,0.14831-0.0709,0.21528-0.059,0.067-0.1417,0.10522-0.24795,0.11481-1.4404,0.29662-2.8454,0.53103-4.215,0.70325v1.7796h6.3579c0.2125,0.00001,0.31877,0.0957,0.31879,0.28703-0.00002,0.0765-0.0296,0.14353-0.0885,0.20094-0.059,0.0574-0.1358,0.0862-0.23024,0.0862h-5.8798c0.35419,0.31575,0.76743,0.6315,1.2397,0.94722,0.47226,0.31575,0.93273,0.59323,1.3814,0.83242,0.68478,0.35402,1.3696,0.63628,2.0544,0.84677,0.60213,0.18179,1.2928,0.33488,2.0721,0.45927,0.10624,0.0574,0.16529,0.13395,0.17711,0.22962-0.00002,0.0957-0.059,0.1818-0.17711,0.25834-0.11808,0.0765-0.23614,0.0957-0.3542,0.0574-0.77926-0.13396-1.464-0.29662-2.0544-0.48797-0.57854-0.20093-1.2338-0.47841-1.9658-0.83242-0.55492-0.2679-1.0508-0.55015-1.4876-0.84678-0.43686-0.29658-0.89141-0.66495-1.3637-1.1051v2.8704c-0.00001,0.21049-0.11808,0.31575-0.35421,0.31574-0.23614,0.00001-0.35421-0.10523-0.3542-0.31574v-2.7986c-0.35421,0.29661-0.73202,0.59322-1.1334,0.88982-0.53131,0.3923-1.0508,0.74154-1.5585,1.0477-0.81466,0.48798-1.6588,0.89461-2.5325,1.2199-0.57853,0.21049-1.2987,0.42577-2.1606,0.64583-0.10623,0.0287-0.18301,0.0431-0.23023,0.0431-0.12987,0-0.22433-0.0431-0.28337-0.12917-0.0237-0.0287-0.0354-0.0765-0.0354-0.14352,0-0.0957,0.0472-0.17223,0.14168-0.22963,0.8855-0.22006,1.7356-0.49276,2.5502-0.81807,0.69659-0.28703,1.3696-0.61713,2.019-0.99029,0.5549-0.31574,1.0921-0.66975,1.6116-1.062,0.34239-0.25833,0.70839-0.55972,1.098-0.90418h-6.0568c-0.21252,0-0.31879-0.0957-0.31879-0.28704,0-0.0765,0.0295-0.14351,0.0885-0.20093,0.059-0.0574,0.13578-0.0862,0.23023-0.0862h6.5704v-1.7073" fill="#FFF"/>
 <path d="m133.02,15.008-2.0898,4.7505c-0.0472,0.0957-0.14758,0.14351-0.30106,0.14352-0.0472-0.00001-0.11807-0.0144-0.21252-0.0431-0.0945-0.0287-0.14169-0.11482-0.14169-0.25834,0-0.0574,0.0118-0.10051,0.0354-0.12916l2.0898-4.7649c0.0708-0.0765,0.17119-0.11481,0.30106-0.11481,0.0945,0,0.1771,0.0287,0.24794,0.0861,0.0709,0.0574,0.10623,0.12439,0.10623,0.20093,0,0.0574-0.0118,0.10051-0.0354,0.12917m-0.30107-2.6264c0.0472,0.0765,0.0708,0.13397,0.0708,0.17223,0,0.0957-0.0472,0.16744-0.14168,0.21527-0.0827,0.0479-0.1653,0.0718-0.24794,0.0718-0.0709,0-0.14759-0.0239-0.23023-0.0718-0.18891-0.20091-0.3365-0.34922-0.44276-0.4449-0.10623-0.10522-0.28926-0.25833-0.54901-0.45927-0.1653-0.13395-0.3601-0.27268-0.58444-0.4162-0.15348-0.10523-0.33059-0.21049-0.5313-0.31575-0.0472-0.0479-0.0709-0.10522-0.0709-0.17223,0-0.0574,0.0295-0.1148,0.0885-0.17222,0.0709-0.067,0.15348-0.1004,0.24793-0.10052,0.0945,0.00001,0.18891,0.0239,0.28336,0.0718,0.35421,0.20093,0.54312,0.31097,0.56673,0.33009,0.24794,0.15309,0.43684,0.28704,0.56672,0.40186,0.28337,0.24877,0.44275,0.38751,0.47817,0.4162,0.21253,0.19137,0.37781,0.34925,0.49589,0.47362m1.2043-3.2722c0.0472,0.0765,0.0709,0.13396,0.0709,0.17221,0,0.0957-0.0472,0.16745-0.14168,0.21529-0.0827,0.0479-0.1653,0.0718-0.24793,0.0718-0.0709,0.00001-0.1476-0.0239-0.23025-0.0718-0.14168-0.16264-0.29516-0.31095-0.46046-0.44491-0.15349-0.14351-0.33059-0.2966-0.5313-0.45926-0.15349-0.12437-0.32468-0.2392-0.51359-0.34446-0.12988-0.067-0.30698-0.15786-0.5313-0.27269-0.0472-0.0479-0.0709-0.10522-0.0709-0.17222-0.00001-0.0574,0.0295-0.1148,0.0885-0.17221,0.0708-0.067,0.15348-0.10051,0.24794-0.10051,0.0944,0,0.18889,0.0239,0.28336,0.0718,0.22432,0.11483,0.40142,0.20572,0.53131,0.27269,0.23612,0.1244,0.41913,0.24878,0.549,0.37315,0.14168,0.11483,0.30108,0.24879,0.47818,0.40186,0.17709,0.1531,0.33648,0.30618,0.47817,0.45927m8.2529,7.7216,0-2.0813-4.8703,0,0,2.0813,4.8703,0m-0.60215-7.0471-3.5597,0,0,2.0245,3.542,0,0.0177-2.0245m0.93864,4.3917c0.0945,0,0.17118,0.024,0.23023,0.0718,0.059,0.0479,0.0885,0.11482,0.0885,0.20093v2.6841c-0.00003,0.067-0.0295,0.12918-0.0885,0.18659-0.059,0.0574-0.13579,0.0855-0.23023,0.0862h-5.2068v1.5785c-0.00001,0.0287-0.00001,0.0478,0,0.0574,0.0118,0.10522,0.0532,0.19135,0.12397,0.25834,0.0709,0.067,0.15348,0.10051,0.24793,0.10051h5.862c0.0827-0.0101,0.16528-0.0191,0.24793-0.0287,0.0945-0.0101,0.183-0.0334,0.26565-0.0718,0.0945-0.0383,0.16529-0.0862,0.21252-0.14353,0.0472-0.0574,0.0827-0.11004,0.10624-0.15788l0.46046-1.1912c-0.00002-0.2105,0.12985-0.31573,0.38962-0.31573,0.11805,0,0.2125,0.0479,0.28336,0.14351,0.0708,0.0957,0.0827,0.18657,0.0354,0.27269l-0.42504,1.2773c-0.059,0.0957-0.10623,0.17222-0.14168,0.22963-0.12989,0.18178-0.24796,0.30139-0.3542,0.35879-0.0945,0.067-0.19484,0.11483-0.30108,0.14353-0.10623,0.0383-0.23025,0.0574-0.3719,0.0574h-6.5173c-0.12988,0-0.24794-0.0287-0.3542-0.0862-0.0944-0.0479-0.17711-0.0957-0.24793-0.14353-0.059-0.0479-0.11808-0.14353-0.1771-0.28705-0.059-0.13395-0.0767-0.24398-0.0532-0.33009v-4.65c-0.42505,0.421-0.89732,0.78458-1.4168,1.0908-0.46047,0.26791-0.97997,0.49276-1.5585,0.67455-0.0827,0.0383-0.18891,0.0383-0.31877,0-0.11807-0.0478-0.17711-0.11482-0.17711-0.20093-0.0236-0.12438,0.0295-0.21528,0.15939-0.27268,0.92093-0.28705,1.7238-0.72717,2.4086-1.3204,0.38962-0.33487,0.68478-0.63147,0.88552-0.88982,0.20069-0.26789,0.36599-0.8459,0.49587-1.1904h-2.6742c-0.22434,0.00002-0.3365-0.0957-0.3365-0.28704,0-0.18178,0.11218-0.27268,0.3365-0.27268h2.8513v-2.0251h-2.2669c-0.23614,0.00001-0.35422-0.0957-0.35421-0.28704-0.00001-0.19135,0.11807-0.28703,0.35421-0.28703h2.2669v-1.8371c0-0.19136,0.12397-0.28704,0.37192-0.28704,0.25974,0,0.38962,0.0957,0.38963,0.28704v1.8371h3.5597v-1.837c-0.00001-0.19136,0.12396-0.28704,0.3719-0.28704,0.25974,0,0.38962,0.0957,0.38963,0.28704v1.8371h2.1784c0.23611,0,0.35418,0.0957,0.3542,0.28703-0.00002,0.19137-0.11809,0.28705-0.3542,0.28704h-2.1784v2.0246h3.418c0.2125,0,0.31877,0.0909,0.31878,0.27268-0.00001,0.0766-0.0295,0.14353-0.0885,0.20094-0.059,0.0574-0.13578,0.0862-0.23022,0.0862h-3.5774c0.38962,0.52625,0.95043,1.3243,1.6825,1.8506,0.49588,0.33488,0.8973,0.57887,1.2043,0.73195,0.25973,0.12438,0.64346,0.2679,1.1512,0.43056,0.14165,0.0479,0.20068,0.14831,0.17709,0.3014-0.00001,0.067-0.0354,0.12439-0.10623,0.17222-0.0709,0.0479-0.14762,0.0718-0.23024,0.0718-0.0472,0-0.1004-0.0144-0.15939-0.0431-0.60216-0.19136-1.0744-0.37315-1.4168-0.54537-0.34242-0.17223-0.75566-0.4497-1.2397-0.83242-0.41324-0.32531-0.73794-0.61235-0.97405-0.86112-0.27157-0.27746-0.53722-0.88418-0.79696-1.2765h-3.6306c-0.10623,0.32532-0.21843,0.86026-0.33649,1.0612-0.11808,0.19135-0.3247,0.44012-0.61985,0.7463h5.6319" fill="#FFF"/>
 <g transform="matrix(0.09046613,0,0,0.09046613,12.228553,15.400138)">
  <g transform="matrix(0.90800584,0.41895752,-0.41895752,0.90800584,-13.138184,-19.286966)">
   <path fill="#FFF" d="m25.302,19.768c-3.8557-1.6306-7.4484-3.4217-10.786-5.3538l-6.6752-3.815-3.8109-3.3562c-52.552-42.404-16.237-127.78,53.881-122.97-15.786,8.1188-18.074,23.268-9.0589,37.302,10.096,15.712-0.92935,40.993-14.577,47.135-22.428,10.103-26.918,37.038-8.9734,51.064z"/>
   <path fill="#de2910" d="m20.89-57.018-4.5886,7.2088-1.6623-8.3882-8.2769-2.1403,7.4603-4.1805-0.52014-8.532,6.2672,5.8093,7.9495-3.1358-3.5737,7.764,5.427,6.5973z"/>
   <path fill="#de2910" d="M25.764,18.873c-9.868-5.069-17.825-15.634-21.292-28.259-3.9647-14.481-1.6841-30.051,6.2656-42.691l-1.7116-1.081c-8.2478,13.131-10.614,29.276-6.5,44.305,3.6647,13.358,11.792,24.122,22.314,29.525z"/>
  </g>
 </g>
 <g transform="matrix(0.10155461,0.10155461,-0.10155461,0.10155461,31.995795,9.2042843)">
  <path d="m-82,136c-27.61,0-50-22.39-50-50,0-27.614,22.39-50,50-50,27.614,0,50,22.386,50,50,0,27.61-22.386,50-50,50zm0-3c26.51,0,48-20.49,48-47s-21.49-47-48-47-48,20.49-48,47,21.49,47,48,47z" fill="#2d3335"/>
  <path d="m-82,136c-27.61,0-50-22.39-50-50v-0.5c0.27,27.38,22.55,49.5,50,49.5,27.446,0,49.729-22.12,50-49.5,0.002,0.168,0,0.332,0,0.5,0,27.61-22.386,50-50,50zm-48-50.5v-0.5c0-26.51,21.49-47,48-47s48,20.49,48,47c0,0.168,0.002,0.333,0,0.5-0.27-26.266-21.658-46.5-48-46.5-26.34,0-47.73,20.234-48,46.5z" fill="#9eaaac"/>
  <path d="m-82,134c26.51,0,48-21.49,48-48s-21.49-48-48-48-48,21.49-48,48,21.49,48,48,48z" fill-opacity="0.47594" fill="#d0e9f2"/>
  <path d="m-82,134c26.51,0,48-21.49,48-48s-21.49-48-48-48-48,21.49-48,48,21.49,48,48,48z" fill="url(#radialGradient5751)"/>
  <path d="m-96.438,130.72-0.843,5c4.83,1.48,9.965,2.28,15.281,2.28s10.451-0.8,15.281-2.28l-0.843-5c-4.553,1.47-9.397,2.28-14.438,2.28s-9.885-0.81-14.438-2.28z" fill="url(#linearGradient5778)"/>
  <path d="m-82,136.25c1.757,0,3.431,0.3,5,0.81v26.63c-1.569,0.51-3.243,0.81-5,0.81s-3.431-0.3-5-0.81v-26.63c1.569-0.51,3.243-0.81,5-0.81z" fill="url(#linearGradient5768)"/>
  <path d="m-82,150.5c3.514,0,5.613,0.65,8,2.44v67.12c-3.137,0.91-4.486,1.44-8,1.44s-4.863-0.53-8-1.44v-67.12c2.637-1.79,4.486-2.44,8-2.44z" fill="url(#linearGradient5868)"/>
  <path d="m-82,154.5c3.514,0,7.238,0.78,10,2.44v65.12c-2.012,1.79-6.486,2.44-10,2.44s-7.863-0.15-10-2.44v-65.12c1.887-1.66,6.486-2.44,10-2.44z" fill="url(#linearGradient5798)"/>
  <path d="m-82,217.5c3.514,0,5.863,0.78,8,2.44v5.12c-2.387,1.54-4.486,2.44-8,2.44s-5.738-0.9-8-2.44v-5.12c2.387-1.91,4.486-2.44,8-2.44z" fill="url(#linearGradient5899)"/>
  <path d="m-82,221.5c-3.514,0-5.613,0.28-8,2.44v1.12c2.262,1.54,4.486,2.44,8,2.44s5.613-0.9,8-2.44v-1.12c-2.512-2.04-4.486-2.44-8-2.44z" fill="#e0bb41"/>
 </g>
</svg>
